<svg id="Grupo_366" data-name="Grupo 366" xmlns="http://www.w3.org/2000/svg" xmlns:xlink="http://www.w3.org/1999/xlink" width="356.037" height="603.604" viewBox="0 0 356.037 603.604">
  <defs>
    <clipPath id="clip-path">
      <rect id="Rectángulo_207" data-name="Rectángulo 207" width="356.037" height="603.604" fill="none"/>
    </clipPath>
    <clipPath id="clip-path-3">
      <rect id="Rectángulo_185" data-name="Rectángulo 185" width="5.479" height="15.846" fill="none"/>
    </clipPath>
    <clipPath id="clip-path-4">
      <rect id="Rectángulo_186" data-name="Rectángulo 186" width="8.023" height="10.236" fill="none"/>
    </clipPath>
    <clipPath id="clip-path-5">
      <rect id="Rectángulo_187" data-name="Rectángulo 187" width="3.118" height="4.308" fill="none"/>
    </clipPath>
    <clipPath id="clip-path-6">
      <rect id="Rectángulo_188" data-name="Rectángulo 188" width="3.298" height="2.856" fill="none"/>
    </clipPath>
    <clipPath id="clip-path-7">
      <rect id="Rectángulo_189" data-name="Rectángulo 189" width="4.632" height="1.941" fill="none"/>
    </clipPath>
    <clipPath id="clip-path-8">
      <rect id="Rectángulo_190" data-name="Rectángulo 190" width="3.817" height="1.121" fill="none"/>
    </clipPath>
    <clipPath id="clip-path-9">
      <rect id="Rectángulo_191" data-name="Rectángulo 191" width="27.524" height="15.58" fill="none"/>
    </clipPath>
    <clipPath id="clip-path-11">
      <rect id="Rectángulo_193" data-name="Rectángulo 193" width="32.039" height="33.711" fill="none"/>
    </clipPath>
    <clipPath id="clip-path-12">
      <rect id="Rectángulo_194" data-name="Rectángulo 194" width="27.166" height="17.157" fill="none"/>
    </clipPath>
    <clipPath id="clip-path-14">
      <rect id="Rectángulo_196" data-name="Rectángulo 196" width="80.715" height="75.304" fill="none"/>
    </clipPath>
    <clipPath id="clip-path-15">
      <rect id="Rectángulo_197" data-name="Rectángulo 197" width="148.511" height="87.699" fill="none"/>
    </clipPath>
    <clipPath id="clip-path-16">
      <rect id="Rectángulo_198" data-name="Rectángulo 198" width="23.069" height="23.069" fill="none"/>
    </clipPath>
    <clipPath id="clip-path-17">
      <rect id="Rectángulo_199" data-name="Rectángulo 199" width="16.148" height="16.148" fill="none"/>
    </clipPath>
    <clipPath id="clip-path-18">
      <rect id="Rectángulo_200" data-name="Rectángulo 200" width="8.459" height="8.459" fill="none"/>
    </clipPath>
    <clipPath id="clip-path-19">
      <rect id="Rectángulo_201" data-name="Rectángulo 201" width="13.072" height="13.072" fill="none"/>
    </clipPath>
    <clipPath id="clip-path-20">
      <rect id="Rectángulo_202" data-name="Rectángulo 202" width="17.826" height="17.827" fill="none"/>
    </clipPath>
    <clipPath id="clip-path-21">
      <rect id="Rectángulo_203" data-name="Rectángulo 203" width="12.478" height="12.478" fill="none"/>
    </clipPath>
    <clipPath id="clip-path-22">
      <rect id="Rectángulo_204" data-name="Rectángulo 204" width="6.537" height="6.537" fill="none"/>
    </clipPath>
    <clipPath id="clip-path-23">
      <rect id="Rectángulo_205" data-name="Rectángulo 205" width="10.102" height="10.101" fill="none"/>
    </clipPath>
  </defs>
  <g id="Grupo_365" data-name="Grupo 365" clip-path="url(#clip-path)">
    <g id="Grupo_364" data-name="Grupo 364">
      <g id="Grupo_363" data-name="Grupo 363" clip-path="url(#clip-path)">
        <path id="Trazado_343" data-name="Trazado 343" d="M140.812,42.566c-6.255-6.607-14.268-12.056-23.459-13.269a37.167,37.167,0,0,0-14.305,1.273,19.123,19.123,0,0,0,4.351-3.577,18.3,18.3,0,0,0,3.6-6.187,13.5,13.5,0,0,0,.576-7.689C110.5,9.094,106.485,6.7,102.5,6.474a10.751,10.751,0,0,0-4.591.774l.012-.052a14.546,14.546,0,0,1,5.865-5.5c.412-.207.05-.824-.36-.617a15.026,15.026,0,0,0-4.765,3.845A20.34,20.34,0,0,1,101.049.517c.268-.376-.351-.732-.617-.361a20.7,20.7,0,0,0-3.154,6.731c-.052.086-.108.17-.158.258a10.371,10.371,0,0,0-1.183-1.688,11.371,11.371,0,0,0-4.4-2.99C84.966-.149,75.688,1.412,72.82,8.615c-.035.086-.058.18-.088.269a9.62,9.62,0,0,0-3.212-5.15c-.353-.289-.862.214-.505.505a8.988,8.988,0,0,1,2.974,4.62,16.9,16.9,0,0,0-4.4-3.7.358.358,0,0,0-.361.617,16.386,16.386,0,0,1,5.016,4.511A23.409,23.409,0,0,0,59.59,8.164c-.452.052-.456.767,0,.715a22.788,22.788,0,0,1,12.325,2.037c-10.764,3.629-19.25,14.446-9.686,24.053,2.5,2.515,5.986,3.741,9.417,4.319a24.3,24.3,0,0,0-9.465,1.862,23.2,23.2,0,0,0-4.14,2.243c-.378.256-.022.876.36.616A23.506,23.506,0,0,1,73.54,40.085a60.825,60.825,0,0,0-8.82,2.79,62.031,62.031,0,0,0-13.771,7.732,60.883,60.883,0,0,0-6.763,5.853.358.358,0,0,0,.506.505,60.437,60.437,0,0,1,12.355-9.534A61.337,61.337,0,0,1,71.42,41.343q2.04-.57,4.114-.993c-2.2,1.455-4.217,2.991-4.983,3.573a42.711,42.711,0,0,0-10.14,10.912,42.379,42.379,0,0,0,2.432,48.18c5.737,7.239,13.827,12.394,22.511,15.541,15.321,5.552,34.448,7.032,49.639.332,13.047-5.754,20.14-19.581,21.541-33.245,1.646-16.06-4.742-31.481-15.722-43.078" transform="translate(19.345 0)" fill="#39354d"/>
        <path id="Trazado_344" data-name="Trazado 344" d="M99.661,492.828c-1.778-1.649-3.976-2.494-6.14-3.5a21.052,21.052,0,0,1-4.089-2.534c-3-3.57-6.227-6.99-9.216-10.581-2.573-3.092-2.858-3.019-.817-6.449,1.393-2.344,2.94-4.607,4.4-6.911q9.479-15,18.5-30.288c13.711-23.308,29.355-46.911,36.21-73.393C145.448,332.356,150.9,305,155.8,277.735c1.783-9.919,3.858-20.319,2.381-30.4-.835-5.7-4.068-8.705-9.416-10.424a48.389,48.389,0,0,0-15.643-2.731c-14.2.286-18.538,10.224-20.24,21.734-5.233,35.355-10.616,70.7-15.79,106.066Q85.3,393.969,73.846,426.086c-5.593,15.8-10.4,31.8-15.86,47.622-2.23,6.466-.731,8.2,5,10.983q7.77,3.777,15.706,7.2c2.151.928,24.207,11.006,25.188,6.755.312-1.348-3.317-4.98-4.22-5.819" transform="translate(25.013 102.765)" fill="#ffbaa6"/>
        <path id="Trazado_345" data-name="Trazado 345" d="M104.073,425.817a29.372,29.372,0,0,0-18.209-14.344,34.688,34.688,0,0,0-4.541-5.7c-.617-.66-1.235-1.321-1.843-1.99q.1-.962.2-1.927a.358.358,0,0,0-.243-.361,66.815,66.815,0,0,1-17.727-7.622.328.328,0,0,0-.353,0,.323.323,0,0,0-.256.154,32.723,32.723,0,0,0-3.839,8.082,15.424,15.424,0,0,0-.748,6.222c.006.068.012.134.02.2s.024.155.037.234c.023.147.047.293.083.433.022.109.036.22.062.33a8.058,8.058,0,0,0,1.7,3.363,12.6,12.6,0,0,0,3.6,2.722c1.41.771,2.871,1.46,4.328,2.137a20.6,20.6,0,0,0,3.814,1.521,5.62,5.62,0,0,0,2.263.105c1.895.9,3.791,1.8,5.685,2.66l.655.306c1.649.77,3.209,1.481,4.695,2.141.75.427,1.506.84,2.278,1.227,2.056,1.033,4.173,1.944,6.314,2.79a36.488,36.488,0,0,0,5.929,1.941,14.668,14.668,0,0,0,3.016.334,7.23,7.23,0,0,0,2.889-.44c1.886-.868.9-3.2.19-4.518" transform="translate(24.768 172.829)" fill="#83628c"/>
        <path id="Trazado_346" data-name="Trazado 346" d="M157.563,247.359c-1.8-12.255-17.642-14.167-27.522-13.134-11.986,1.253-25.427,7.081-26.895,20.46-.283,2.594-.37,5.209-.506,7.813q-.233,4.429-.468,8.856-.46,8.728-.921,17.455-.922,17.456-1.842,34.911l-1.114,21.1q-1.271,8.59-2.524,17.145c-9.009,24.442-16.393,44.8-23.235,64.081-2.61,7.376-5.081,14.888-7.476,22.252l-4.289,12.023q-.57,1.6-1.141,3.2a3.183,3.183,0,0,0-.176,2.688,3.629,3.629,0,0,0,1.74,1.374c.94.43,1.906.811,2.87,1.187a74.919,74.919,0,0,0,13.957,3.914.374.374,0,0,0,.4-.164q6.244-9.509,11.863-19.407,3.594-6.335,6.912-12.819,2.249-3.751,4.433-7.463c1.964-3.338,3.967-6.683,5.978-10.04,11.987-20.013,24.383-40.707,30.269-63.445,6.013-23.229,11.348-48.354,17.3-81.463l.3-1.672c1.714-9.473,3.485-19.269,2.082-28.849" transform="translate(25.986 102.684)" fill="#423d59"/>
        <path id="Trazado_347" data-name="Trazado 347" d="M112.844,142.6c1.161-5.97,2.643-17.122,7.869-20.994a9.062,9.062,0,0,1,6.662-1.466,16.521,16.521,0,0,1,6.43,2.622c8.789,5.637,12.191,15,14.232,24.754,3.381,16.161,4.565,35.119,9.7,51.734,2.115-.905,4.132-1.678,5.561-2.331,12.568-5.76,26.15-10.481,36.652-19.591q.557.678,1.112,1.357c2.055,2.508,4.138,4.991,6.219,7.478.719.859,1.436,1.724,2.158,2.58-2.263,2.109-4.259,4.609-6.327,6.771a199.519,199.519,0,0,1-24.944,22.078q-6.768,5.048-13.95,9.509c-6.813,4.232-15.255,10.291-23.718,8.581-9.931-2.006-14.576-13.014-18.291-21.242-9.888-21.894-13.978-48.142-9.371-71.839" transform="translate(48.693 52.675)" fill="#b386cf"/>
        <path id="Trazado_348" data-name="Trazado 348" d="M113,140.506c1.132-6.191,2.845-15.547,7.61-19.078a9.4,9.4,0,0,1,6.925-1.532,16.678,16.678,0,0,1,6.571,2.673c9.327,5.983,12.508,15.986,14.39,24.981,1.278,6.114,2.223,12.494,3.224,19.249,1.593,10.751,3.24,21.863,6.355,32.075.787-.332,1.555-.647,2.281-.944,1.081-.442,2.1-.859,2.905-1.229,2.578-1.181,5.245-2.338,7.823-3.458,5.668-2.46,11.527-5,16.965-8.016a.362.362,0,0,1,.276-.029.357.357,0,0,1,.214.178,37.084,37.084,0,0,0,5.275,7.66,22.128,22.128,0,0,0,6.82,5.072.359.359,0,0,1,.1.576,200.5,200.5,0,0,1-22.24,19.3c-4.507,3.361-9.209,6.567-13.974,9.527-.635.393-1.282.8-1.942,1.22-5.374,3.4-11.862,7.5-18.478,7.7a15.485,15.485,0,0,1-3.557-.292c-9.778-1.974-14.432-12.306-18.17-20.609l-.377-.837c-10.4-23.024-13.824-49.286-9.4-72.053.128-.655.259-1.373.4-2.135" transform="translate(48.584 52.566)" fill="#f0f0f0"/>
        <path id="Trazado_349" data-name="Trazado 349" d="M181.042,177.177c-2.163-1.266-3.954-3.564-5.515-5.263-1.9-2.068-3.479-4.315-3.734-7.174-.232-2.587.576-4.891,1.027-7.283a15.389,15.389,0,0,0-.111-3.376c-.115-.7-.3-1.4-.478-2.1a12.765,12.765,0,0,1-.452-1.994c-.046-.54.157-1.023.659-1.109a2.085,2.085,0,0,1,1.321.363,6.789,6.789,0,0,1,1.207.915,14.371,14.371,0,0,1,3.911,8.849A18.242,18.242,0,0,0,182,156.2a41.534,41.534,0,0,1,10.581-7.915,16.109,16.109,0,0,1,4.2-2.01c1.719-.35,3.122.9,1.833,2.578-.932,1.216-1.974,2.344-3.007,3.462a46.835,46.835,0,0,1-3.449,3.859c4.768-1.957,11.561-4.387,13.114-3.066,1.373,1.168-3.065,4.361-7.237,6.947a38.95,38.95,0,0,1,7.032-.373q.673.026,1.348.073c1.655.118,2.646,1.437,1.3,2.541-1.413,1.157-3.519,1.642-5.253,2.158-.881.315-1.765.617-2.662.9-.6.187-1.207.36-1.814.528.525.112,1.048.255,1.57.411,3.347.381,7.452,1.338,8.542,2.755,2.558,3.325-10.344,1.45-12.222,1.275a3,3,0,0,0-.519-.013,7.728,7.728,0,0,0-1.327,1.052c-.217.236-.44.468-.665.695a28.358,28.358,0,0,1-3.079,3.34,12.889,12.889,0,0,1-4.578,2.519,5.872,5.872,0,0,1-4.658-.732" transform="translate(75.373 64.165)" fill="#b386cf"/>
        <g id="Grupo_302" data-name="Grupo 302" transform="translate(254.225 223.009)" opacity="0.4" style="mix-blend-mode: overlay;isolation: isolate">
          <g id="Grupo_301" data-name="Grupo 301">
            <g id="Grupo_300" data-name="Grupo 300" clip-path="url(#clip-path-3)">
              <path id="Trazado_350" data-name="Trazado 350" d="M177.99,170.208c2.075-2.318,3.744-5.377,3.439-8.584a6.755,6.755,0,0,0-4.494-5.929.358.358,0,0,1,.2-.688,7.118,7.118,0,0,1,4.542,4.522,9.561,9.561,0,0,1-.547,7.278,15.9,15.9,0,0,1-2.643,3.918c-.308.342-.8-.174-.495-.517" transform="translate(-176.686 -154.991)" fill="#320032"/>
            </g>
          </g>
        </g>
        <g id="Grupo_305" data-name="Grupo 305" transform="translate(260.507 222.514)" opacity="0.4" style="mix-blend-mode: overlay;isolation: isolate">
          <g id="Grupo_304" data-name="Grupo 304">
            <g id="Grupo_303" data-name="Grupo 303" clip-path="url(#clip-path-4)">
              <path id="Trazado_351" data-name="Trazado 351" d="M181.055,154.989a.358.358,0,0,1,.715.007c-.1,4.386,3.42,7.561,7.122,9.24.417.19.043.8-.373.612-3.932-1.784-7.57-5.23-7.465-9.859" transform="translate(-181.052 -154.647)" fill="#320032"/>
            </g>
          </g>
        </g>
        <g id="Grupo_308" data-name="Grupo 308" transform="translate(261.248 228.614)" opacity="0.4" style="mix-blend-mode: overlay;isolation: isolate">
          <g id="Grupo_307" data-name="Grupo 307">
            <g id="Grupo_306" data-name="Grupo 306" clip-path="url(#clip-path-5)">
              <path id="Trazado_352" data-name="Trazado 352" d="M184.155,163.13a6.333,6.333,0,0,1-2.578-3.8c-.1-.449.593-.627.694-.177a5.593,5.593,0,0,0,2.258,3.371c.377.259.007.872-.373.61" transform="translate(-181.567 -158.887)" fill="#320032"/>
            </g>
          </g>
        </g>
        <g id="Grupo_311" data-name="Grupo 311" transform="translate(264.587 220.004)" opacity="0.4" style="mix-blend-mode: overlay;isolation: isolate">
          <g id="Grupo_310" data-name="Grupo 310">
            <g id="Grupo_309" data-name="Grupo 309" clip-path="url(#clip-path-6)">
              <path id="Trazado_353" data-name="Trazado 353" d="M183.986,155.652a.36.36,0,0,1,.012-.505L186.583,153a.367.367,0,0,1,.507.012.36.36,0,0,1-.012.505l-2.587,2.148a.366.366,0,0,1-.505-.012" transform="translate(-183.888 -152.903)" fill="#320032"/>
            </g>
          </g>
        </g>
        <g id="Grupo_314" data-name="Grupo 314" transform="translate(269.144 224.086)" opacity="0.4" style="mix-blend-mode: overlay;isolation: isolate">
          <g id="Grupo_313" data-name="Grupo 313">
            <g id="Grupo_312" data-name="Grupo 312" clip-path="url(#clip-path-7)">
              <path id="Trazado_354" data-name="Trazado 354" d="M187.314,156.976q1.99-.522,3.927-1.22a.358.358,0,0,1,.434.258.364.364,0,0,1-.258.435q-1.934.7-3.927,1.219a.357.357,0,0,1-.177-.691" transform="translate(-187.055 -155.74)" fill="#320032"/>
            </g>
          </g>
        </g>
        <g id="Grupo_317" data-name="Grupo 317" transform="translate(269.993 229.715)" opacity="0.4" style="mix-blend-mode: overlay;isolation: isolate">
          <g id="Grupo_316" data-name="Grupo 316">
            <g id="Grupo_315" data-name="Grupo 315" clip-path="url(#clip-path-8)">
              <path id="Trazado_355" data-name="Trazado 355" d="M187.655,160.511a.361.361,0,0,1,.258-.434l3.107-.42a.369.369,0,0,1,.435.258.361.361,0,0,1-.258.436l-3.107.419a.368.368,0,0,1-.435-.258" transform="translate(-187.645 -159.652)" fill="#320032"/>
            </g>
          </g>
        </g>
        <path id="Trazado_356" data-name="Trazado 356" d="M51.606,140.3c7.132-24.817,44.321-32,66.155-27.937,15.515,2.885,38.75,10.764,43.685,27.937a21.8,21.8,0,0,1,.819,6.075c-8.879,15.279-17.075,30.813-22.614,47.725a149.55,149.55,0,0,0-6.6,29q-.24,2.033-.377,4.069a22.007,22.007,0,0,1-2.069,1.434c-13.511,8.266-34.489,8.368-48.165,0a22.219,22.219,0,0,1-2.071-1.434q-.138-2.035-.377-4.069a149.545,149.545,0,0,0-6.594-29c-5.54-16.912-13.735-32.446-22.616-47.725a21.8,21.8,0,0,1,.82-6.075" transform="translate(22.287 48.841)" fill="#ffbaa6"/>
        <path id="Trazado_357" data-name="Trazado 357" d="M161.9,140.315c-5.485-19.086-32.571-26.072-43.963-28.19-22.682-4.219-59.439,3.394-66.564,28.19a22.2,22.2,0,0,0-.835,6.173.35.35,0,0,0,.049.178c7.9,13.6,16.768,29.9,22.584,47.658a148.022,148.022,0,0,1,6.58,28.934c.155,1.318.282,2.682.376,4.052a.356.356,0,0,0,.138.258,22.61,22.61,0,0,0,2.1,1.458c6.8,4.164,15.537,6.245,24.269,6.245s17.465-2.081,24.269-6.245a22.8,22.8,0,0,0,2.1-1.458.356.356,0,0,0,.138-.258c.092-1.363.219-2.727.376-4.052a147.99,147.99,0,0,1,6.58-28.934c5.817-17.758,14.681-34.056,22.584-47.658a.348.348,0,0,0,.047-.178,22.2,22.2,0,0,0-.833-6.173" transform="translate(22.178 48.724)" fill="#83628c"/>
        <path id="Trazado_358" data-name="Trazado 358" d="M67.521,72.131q-.175-.742-.4-1.475a17.735,17.735,0,0,0-6.761-9.578C49.27,53.642,37.64,66.148,41.139,77.5A15.69,15.69,0,0,0,56.184,88.248c4.109-.13,8.283-2.147,10.341-5.705,1.788-3.092,1.814-6.935,1-10.412" transform="translate(17.776 25.82)" fill="#ffbaa6"/>
        <g id="Grupo_320" data-name="Grupo 320" transform="translate(58.29 98.495)" opacity="0.4" style="mix-blend-mode: overlay;isolation: isolate">
          <g id="Grupo_319" data-name="Grupo 319">
            <g id="Grupo_318" data-name="Grupo 318" clip-path="url(#clip-path-9)">
              <path id="Trazado_359" data-name="Trazado 359" d="M60.016,72.543c-6.232,2.138-13.963.708-19.505-3.286a14.239,14.239,0,0,0,.626,4.026A15.69,15.69,0,0,0,56.182,84.027c4.109-.13,8.282-2.145,10.341-5.705,1.695-2.931,1.8-6.538,1.114-9.868a28.014,28.014,0,0,1-7.62,4.089" transform="translate(-40.512 -68.454)" fill="#320032"/>
            </g>
          </g>
        </g>
        <path id="Trazado_360" data-name="Trazado 360" d="M115.055,72.131q.175-.742.4-1.475a17.735,17.735,0,0,1,6.761-9.578c11.088-7.436,22.718,5.07,19.219,16.426A15.69,15.69,0,0,1,126.39,88.248c-4.108-.13-8.282-2.147-10.34-5.705-1.788-3.092-1.814-6.935-1-10.412" transform="translate(50.264 25.82)" fill="#ffbaa6"/>
        <g id="Grupo_323" data-name="Grupo 323" transform="translate(164.803 98.495)" opacity="0.4" style="mix-blend-mode: overlay;isolation: isolate">
          <g id="Grupo_322" data-name="Grupo 322">
            <g id="Grupo_321" data-name="Grupo 321" clip-path="url(#clip-path-9)">
              <path id="Trazado_361" data-name="Trazado 361" d="M122.557,72.543c6.232,2.138,13.963.708,19.505-3.286a14.239,14.239,0,0,1-.626,4.026,15.69,15.69,0,0,1-15.045,10.744c-4.109-.13-8.282-2.145-10.341-5.705-1.695-2.931-1.8-6.538-1.114-9.868a28.014,28.014,0,0,0,7.62,4.089" transform="translate(-114.538 -68.454)" fill="#320032"/>
            </g>
          </g>
        </g>
        <path id="Trazado_362" data-name="Trazado 362" d="M107.468,93.844c-8.695,3.478-18.616,3.047-28.125.422a263.912,263.912,0,0,0-1.7,32.505c.052,6.322.755,13.181,4.4,17.711,3.8,4.73,9.957,5.633,15.269,4.132a16.362,16.362,0,0,0,10.853-9.14c1.478-3.492,1.659-7.558,1.637-11.481q-.013-2.428-.1-4.853c-.329-9.777-1.332-19.55-2.237-29.3" transform="translate(34.069 41.183)" fill="#ffbaa6"/>
        <path id="Trazado_363" data-name="Trazado 363" d="M109.711,108.422c-.868.157-1.737.3-2.607.435a68.526,68.526,0,0,1-21.927.15,74.112,74.112,0,0,1-7.551-1.669q-.278,6.712-.233,13.517c.047,5.816.6,13.111,4.479,17.931A13.519,13.519,0,0,0,92.718,143.7a17.766,17.766,0,0,0,4.8-.666,16.694,16.694,0,0,0,11.086-9.345c1.5-3.542,1.686-7.678,1.665-11.619-.009-1.59-.04-3.227-.1-4.865-.1-2.919-.26-5.853-.46-8.786" transform="translate(33.96 47.105)" fill="#83628c"/>
        <g id="Grupo_326" data-name="Grupo 326" transform="translate(111.813 135.027)" opacity="0.4" style="mix-blend-mode: overlay;isolation: isolate">
          <g id="Grupo_325" data-name="Grupo 325">
            <g id="Grupo_324" data-name="Grupo 324" clip-path="url(#clip-path-11)">
              <path id="Trazado_364" data-name="Trazado 364" d="M107.434,93.844c-8.694,3.478-18.613,3.047-28.121.423q-1.3,11.238-1.6,22.584c7.748,10.14,20.114,12.337,32.039,9.653q-.024-1.683-.078-3.364c-.329-9.777-1.332-19.55-2.237-29.3" transform="translate(-77.71 -93.844)" fill="#320032"/>
            </g>
          </g>
        </g>
        <path id="Trazado_365" data-name="Trazado 365" d="M53.59,83.138q-.028,1.183-.03,2.363c-.019,10.269,1.482,20.86,6.917,29.695,8.429,13.7,25.394,21.088,41.921,21.6,12.023.373,24.538-2.7,33.53-10.394,13.7-11.724,16.528-31.276,15.551-48.9-1.2-21.617-13.406-43.486-37.55-47.125C92,27.07,68.334,36.525,59.1,56.57c-3.827,8.309-5.288,17.462-5.511,26.568" transform="translate(23.505 13.046)" fill="#ffbaa6"/>
        <g id="Grupo_329" data-name="Grupo 329" transform="translate(86.511 108.249)" opacity="0.4" style="mix-blend-mode: overlay;isolation: isolate">
          <g id="Grupo_328" data-name="Grupo 328">
            <g id="Grupo_327" data-name="Grupo 327" clip-path="url(#clip-path-12)">
              <path id="Trazado_366" data-name="Trazado 366" d="M73.708,75.233c-7.5,0-13.583,3.84-13.583,8.578s6.081,8.58,13.583,8.58S87.29,88.55,87.29,83.811s-6.081-8.578-13.583-8.578" transform="translate(-60.125 -75.233)" fill="#320032"/>
            </g>
          </g>
        </g>
        <g id="Grupo_332" data-name="Grupo 332" transform="translate(137.984 108.249)" opacity="0.4" style="mix-blend-mode: overlay;isolation: isolate">
          <g id="Grupo_331" data-name="Grupo 331">
            <g id="Grupo_330" data-name="Grupo 330" clip-path="url(#clip-path-12)">
              <path id="Trazado_367" data-name="Trazado 367" d="M109.482,75.233c-7.5,0-13.583,3.84-13.583,8.578s6.081,8.58,13.583,8.58,13.583-3.842,13.583-8.58-6.081-8.578-13.583-8.578" transform="translate(-95.899 -75.233)" fill="#320032"/>
            </g>
          </g>
        </g>
        <path id="Trazado_368" data-name="Trazado 368" d="M72.5,66.289c-1.737,0-3.145,1.76-3.145,3.932s1.409,3.931,3.145,3.931,3.145-1.76,3.145-3.931-1.409-3.932-3.145-3.932" transform="translate(30.436 29.091)" fill="#4a4a4a"/>
        <path id="Trazado_369" data-name="Trazado 369" d="M103.8,66.289c-1.737,0-3.145,1.76-3.145,3.932s1.409,3.931,3.145,3.931,3.145-1.76,3.145-3.931-1.409-3.932-3.145-3.932" transform="translate(44.172 29.091)" fill="#4a4a4a"/>
        <path id="Trazado_370" data-name="Trazado 370" d="M57.487,277.237c-5.34-10.337-7.62-20.938,3.738-29.463a48.326,48.326,0,0,1,14.292-6.919c5.345-1.729,9.724-1.177,13.731,2.961,7.089,7.324,11.478,16.977,15.824,26.071,23.54,49.245,44.161,100.16,60.311,152.314q5.249,16.953,9.93,34.073c.724,2.629,1.355,5.3,2.15,7.9,1.161,3.819,1.3,3.558,5.317,3.74,4.668.21,9.37.127,14.029.312a21.1,21.1,0,0,0,4.626-1.315c2.2-.924,4.306-1.98,6.722-2.184,1.23-.1,6.357-.338,7.145.8,2.481,3.587-19.823,13.106-21.958,14.073q-7.871,3.559-15.9,6.76c-5.919,2.361-8.209,2.305-11.486-3.7-8.022-14.692-16.612-29.023-24.524-43.8-28.617-53.538-56.085-107.695-83.945-161.63" transform="translate(23.295 105.294)" fill="#ffbaa6"/>
        <path id="Trazado_371" data-name="Trazado 371" d="M179.761,395.12a29.359,29.359,0,0,0-22.8,4.186,34.556,34.556,0,0,0-7.275-.358c-.9.026-1.807.053-2.711.068l-1.317-1.422a.363.363,0,0,0-.433-.056,66.76,66.76,0,0,1-17.433,8.266.327.327,0,0,0-.237.262.322.322,0,0,0-.053.293,32.681,32.681,0,0,0,3.528,8.223,15.435,15.435,0,0,0,4.174,4.673c.055.04.108.079.163.116s.134.085.2.127c.125.079.252.158.38.225.1.056.19.118.288.17a8.03,8.03,0,0,0,3.649.947,12.618,12.618,0,0,0,4.422-.9c1.512-.548,2.994-1.189,4.465-1.836a20.756,20.756,0,0,0,3.663-1.858,5.626,5.626,0,0,0,1.574-1.629c1.931-.824,3.855-1.659,5.754-2.508l.662-.289c1.668-.728,3.232-1.429,4.709-2.108.817-.281,1.627-.576,2.427-.9,2.135-.86,4.216-1.848,6.266-2.895a36.284,36.284,0,0,0,5.376-3.167,14.608,14.608,0,0,0,2.245-2.043,7.2,7.2,0,0,0,1.578-2.459c.6-1.987-1.807-2.786-3.265-3.128" transform="translate(55.948 173.073)" fill="#83628c"/>
        <path id="Trazado_372" data-name="Trazado 372" d="M163.506,244.146a96.239,96.239,0,0,0-6.62-21.345c-3.125-7.042-7.279-13.471-11.5-19.889-3.915-5.955-7.8-12.01-10.47-18.637-8.659,4.2-18.873,4.8-28.383,4.709-5.583-.052-11.2-.2-16.767-.689a46.2,46.2,0,0,1-10.643-1.925,119.921,119.921,0,0,1-9.583,16.542c-4.22,6.419-8.374,12.848-11.5,19.889a96.239,96.239,0,0,0-6.62,21.345,98.307,98.307,0,0,0-1.587,22.4,95.007,95.007,0,0,0,3.606,22.148q.382,1.319.8,2.624a.351.351,0,0,0,.427.236l.252-.2a.3.3,0,0,0,.01-.224c-.033-.1-.062-.209-.095-.314q1.006-.468,2.023-.925a41.942,41.942,0,0,1,14.791-6.905,36.007,36.007,0,0,1,16.613-.019c6.426,1.472,12.388,4.335,19.105,4.236s13.06-2.472,19.658-3.422a57.826,57.826,0,0,1,16.24-.171,47.812,47.812,0,0,1,16.432,5.147c.485.266.993.554,1.511.858.092-.306.191-.611.281-.919a95.007,95.007,0,0,0,3.606-22.148,98.388,98.388,0,0,0-1.587-22.4" transform="translate(21.827 80.869)" fill="#39354d"/>
        <path id="Trazado_373" data-name="Trazado 373" d="M179.509,465.881c-.334-.955-.678-1.907-1.016-2.859q-2.883-8.107-5.765-16.214c-2.371-8.351-4.728-16.306-7.14-24.094-8.091-26.129-17.613-52.823-28.456-79.862-6.852-26.709-15.233-53-24.691-78.905-3-8.211-5.9-19.719-14.506-23.66-8.246-3.777-18.364-.747-26.39,2.151-16.314,5.891-22.845,19.714-14.557,35.507,7.258,13.829,14.317,27.767,21.458,41.658,20.288,39.459,41.266,80.262,62.535,120.055.567,1.061,1.151,2.119,1.727,3.178q4.081,9.009,8.472,17.872,2.64,5.318,5.39,10.578c.46.879.915,1.761,1.389,2.635a3.309,3.309,0,0,0,1.489,1.586c1.529.672,3.358-.178,4.813-.678a114.911,114.911,0,0,0,10.732-4.3q1.351-.622,2.686-1.278a4.421,4.421,0,0,0,1.776-1.21,2.27,2.27,0,0,0,.055-2.16" transform="translate(23.432 104.675)" fill="#39354d"/>
        <path id="Trazado_374" data-name="Trazado 374" d="M84.341,77.949c.265-.376.842.046.576.423A1.366,1.366,0,0,0,87,80.128c.013-.013.027-.022.04-.033a.542.542,0,0,1,.045-.036.554.554,0,0,1,.056-.032.273.273,0,0,1,.048-.019.326.326,0,0,1,.312.043.265.265,0,0,1,.037.042,3.119,3.119,0,0,0,3.568-.514,2.792,2.792,0,0,0,.22-3.7,2.9,2.9,0,0,0-1.892-1.217.37.37,0,0,1-.525-.311q-.112-2.45-.039-4.9c.013-.459.728-.462.714,0-.045,1.511-.032,3.023.03,4.534a3.855,3.855,0,0,1,3.024,3.449,3.533,3.533,0,0,1-2.824,3.617,3.646,3.646,0,0,1-2.492-.273,2.177,2.177,0,0,1-2,.34,2.026,2.026,0,0,1-1.35-1.823,2.109,2.109,0,0,1,.37-1.345" transform="translate(36.849 30.327)" fill="#4a4a4a"/>
        <path id="Trazado_375" data-name="Trazado 375" d="M83.553,84.446A6.033,6.033,0,0,1,94.409,84.2c.213.407-.4.77-.617.361a5.322,5.322,0,0,0-9.622.242c-.194.416-.81.053-.617-.361" transform="translate(36.651 35.512)" fill="#dc515d"/>
        <path id="Trazado_376" data-name="Trazado 376" d="M99.294,67.741a7.273,7.273,0,0,0,5.934-5.327.358.358,0,0,1,.689.191,8,8,0,0,1-6.623,5.85c-.193.026-.355-.183-.358-.36a.366.366,0,0,1,.358-.355" transform="translate(43.418 27.279)" fill="#4a4a4a"/>
        <path id="Trazado_377" data-name="Trazado 377" d="M98.955,65.144a4.89,4.89,0,0,0,2.45-1.22.367.367,0,0,1,.506,0,.363.363,0,0,1,0,.506,5.588,5.588,0,0,1-2.767,1.4.367.367,0,0,1-.44-.249.362.362,0,0,1,.25-.44" transform="translate(43.311 28.008)" fill="#4a4a4a"/>
        <path id="Trazado_378" data-name="Trazado 378" d="M77.528,67.741a7.273,7.273,0,0,1-5.934-5.327.358.358,0,0,0-.689.191,8,8,0,0,0,6.623,5.85c.193.026.355-.183.357-.36a.365.365,0,0,0-.357-.355" transform="translate(31.111 27.279)" fill="#4a4a4a"/>
        <path id="Trazado_379" data-name="Trazado 379" d="M76.746,65.144a4.9,4.9,0,0,1-2.45-1.22.358.358,0,0,0-.506.506,5.6,5.6,0,0,0,2.767,1.4A.369.369,0,0,0,77,65.584a.361.361,0,0,0-.252-.44" transform="translate(32.337 28.008)" fill="#4a4a4a"/>
        <path id="Trazado_380" data-name="Trazado 380" d="M126.252,78.572a53.034,53.034,0,0,1-12.61,18.388,52.265,52.265,0,0,1-4.9,4.1c-.365.269-.014.892.357.619a53.458,53.458,0,0,0,17.837-22.911c.174-.426-.515-.617-.688-.2" transform="translate(47.655 34.378)" fill="#f0f0f0"/>
        <path id="Trazado_381" data-name="Trazado 381" d="M54.257,78.075a53.034,53.034,0,0,0,12.61,18.388,52.03,52.03,0,0,0,4.9,4.1c.365.271.014.894-.357.62A53.458,53.458,0,0,1,53.57,78.271c-.174-.426.515-.617.688-.2" transform="translate(23.497 34.16)" fill="#f0f0f0"/>
        <path id="Trazado_382" data-name="Trazado 382" d="M143.208,80.5a.316.316,0,0,0-.242-.419q-5.914-1.273-11.734-2.94-5.154-1.481-10.214-3.266c-3.342-1.181-6.624-2.535-9.983-3.67a46.211,46.211,0,0,0-4.816-1.358,23.369,23.369,0,0,0-11.624,0,46.285,46.285,0,0,0-4.814,1.358c-3.36,1.135-6.64,2.489-9.983,3.67q-5.057,1.785-10.216,3.266-5.814,1.668-11.734,2.94a.316.316,0,0,0-.24.419.36.36,0,0,0-.127.341,51.174,51.174,0,0,0,4.812,14.495,52.473,52.473,0,0,0,8.862,12.529,50.2,50.2,0,0,0,12.436,9.494,37.1,37.1,0,0,0,16.66,4.81c6,.106,11.75-1.994,16.974-4.81a50.165,50.165,0,0,0,12.435-9.494,52.52,52.52,0,0,0,8.863-12.529,51.216,51.216,0,0,0,4.81-14.495.356.356,0,0,0-.125-.341" transform="translate(25.223 29.891)" fill="#d4d4d4"/>
        <path id="Trazado_383" data-name="Trazado 383" d="M151.47,58.29c-3.622,6.689-5.184,14.21-6.227,21.679-.206,1.479-.393,2.963-.574,4.446q-5.782-1.254-11.472-2.882-5.156-1.478-10.214-3.266c-3.344-1.18-6.624-2.535-9.984-3.669a45.932,45.932,0,0,0-4.814-1.36,23.368,23.368,0,0,0-11.624,0,45.861,45.861,0,0,0-4.816,1.36c-3.358,1.134-6.64,2.489-9.983,3.669Q76.7,80.054,71.546,81.533q-5.586,1.6-11.266,2.836c-.124-.991-.246-1.983-.384-2.971C58.853,73.931,57.29,66.41,53.668,59.72c-.219-.406-.836-.045-.617.36a42.829,42.829,0,0,1,2.591,5.8c2.186,6.032,3.164,12.393,3.96,18.741a.35.35,0,0,0-.032.272.357.357,0,0,0-.125.342c.138.81.3,1.616.482,2.419.042.184.085.368.128.553.178.76.37,1.517.583,2.266l.026.095q.369,1.291.807,2.56l.016.043q.438,1.273.942,2.522h0c1.151-.46,2.294-.9,3.4-1.341a85.021,85.021,0,0,1,9.279-3.073,64.488,64.488,0,0,0,3.824,11.147c-3.722,1-7.4,2.138-11.045,3.393.138.2.272.4.413.6q5.409-1.858,10.937-3.337c.23.5.453,1,.7,1.5a66.12,66.12,0,0,0,3.6,6.364c-4.165-.529-8.351-.9-12.545-1.063.212.25.422.5.639.747,4.148.178,8.288.558,12.406,1.1a65.385,65.385,0,0,0,9.908,11.786c.9.842,1.832,1.643,2.778,2.429.486.1.974.186,1.463.262a63.5,63.5,0,0,1-10.662-10.8c-.892-1.15-1.731-2.34-2.544-3.548.147.02.294.036.439.056,7.681,1.07,15.285,2.633,22.848,4.338q3.656.822,7.294,1.728a72.219,72.219,0,0,1-8.05,8.134c.473-.088.944-.184,1.413-.294.911-.816,1.81-1.645,2.683-2.5a65.667,65.667,0,0,0,4.714-5.148q3.1.777,6.186,1.632c.263-.17.521-.35.781-.524q-3.22-.909-6.466-1.721a48.147,48.147,0,0,0,8.426-15.329c.5-1.557.908-3.135,1.27-4.727q7.3.177,14.574.988c.106-.226.216-.45.319-.678q-6.393-.727-12.827-.968c-.635-.023-1.269-.037-1.9-.053.381-1.754.7-3.524.991-5.3A92.216,92.216,0,0,1,141.807,96.9h0q.294-.678.568-1.364l.043-.109q.773-1.942,1.386-3.944c.037-.119.076-.237.112-.358.092-.308.177-.617.263-.927.075-.269.148-.537.219-.806s.134-.527.2-.79q.125-.518.239-1.039c.046-.207.094-.416.137-.623.024-.119.045-.24.069-.36a.352.352,0,0,0,.1-.212l.112-.925c.013-.069.027-.137.04-.206a.236.236,0,0,0-.007-.065c.847-7,1.794-14.062,4.207-20.719a42.841,42.841,0,0,1,2.59-5.8c.219-.406-.4-.767-.617-.361m-26.386,41.978a45.118,45.118,0,0,1-5.223,11.809,53.64,53.64,0,0,1-3.787,5.275q-2.568-.639-5.148-1.237c-7.468-1.729-14.977-3.324-22.554-4.494-1.3-.2-2.61-.384-3.918-.558a65.5,65.5,0,0,1-4.535-8.164c.086-.023.171-.047.256-.069a166.47,166.47,0,0,1,22.643-4.255,169.165,169.165,0,0,1,22.807-1.111l.165,0c-.216.938-.446,1.872-.706,2.8m.871-3.511a168.816,168.816,0,0,0-43.1,4.662c-1.078.26-2.151.535-3.223.817A64.1,64.1,0,0,1,76.8,94.81q-.568-1.839-1.017-3.709,2.359-.624,4.74-1.148a94.046,94.046,0,0,1,46.458,1.332c-.3,1.833-.63,3.66-1.029,5.473" transform="translate(23.261 25.503)" fill="#f0f0f0"/>
        <path id="Trazado_384" data-name="Trazado 384" d="M123.224,58.906a17.9,17.9,0,0,0-17.273,13.288,10.956,10.956,0,0,0-11.93-.03,18.418,18.418,0,1,0,.174.719.282.282,0,0,0,.069-.029,10.253,10.253,0,0,1,11.455.039.276.276,0,0,0,.058.024,17.871,17.871,0,1,0,17.447-14.012M76.755,93.936A17.158,17.158,0,1,1,93.913,76.778,17.177,17.177,0,0,1,76.755,93.936m46.469,0a17.158,17.158,0,1,1,17.158-17.158,17.177,17.177,0,0,1-17.158,17.158" transform="translate(25.841 25.851)" fill="#fff"/>
        <path id="Trazado_385" data-name="Trazado 385" d="M99.935,123q.807-5.081,2.112-10.068c2.3-8.7,29.236,8.973,32.859,11.292q3.87,2.476,7.54,5.24c1.679,1.265,3.659,2.663,3.846,4.944a8.4,8.4,0,0,1-.858,3.7c-.588,1.494-1.184,2.984-1.747,4.489q-1.7,4.528-3.144,9.145c-3.83,12.285-6.214,25.137-5.836,38.042.384,13.124,4.178,25.486,9.289,37.483,4.9,11.505,10.4,22.727,15.007,34.36q7.127,17.989,12.495,36.61,5.359,18.594,8.908,37.645,1.785,9.585,3.1,19.252c.767,5.646,1.617,11.519.283,17.148-1.314,5.547-5.036,9.8-8.925,13.771-4.817,4.917-9.668,9.8-14.5,14.7l-1.337,1.354c.056.84.119,1.681.168,2.521a38.809,38.809,0,0,1-.833,12.36c-1.955,7.24-6.988,13.247-11.824,18.781a155.811,155.811,0,0,1-19.5,18.722.363.363,0,0,1-.561-.073c-3.829-6.389-5.25-13.843-6.2-21.137a151.592,151.592,0,0,1-.97-25.164c.629-16.79,3.283-33.409,5.176-50.082a410.812,410.812,0,0,0,2.637-50.719,408.851,408.851,0,0,0-3.242-46.932q-1.55-8.631-3.636-17.165c-5.147-21.2-12.117-41.931-16.748-63.262a210.818,210.818,0,0,1-4.738-32.994A113.084,113.084,0,0,1,99.935,123" transform="translate(43.262 48.509)" fill="#f0f0f0"/>
        <path id="Trazado_386" data-name="Trazado 386" d="M25.981,370.578q.136-9.529,1.083-19.023a225.006,225.006,0,0,1,19.809-72.509c5.482-11.819,11.866-23.233,16.553-35.412a124.793,124.793,0,0,0,4.309-75.845,195.468,195.468,0,0,0-6.122-18.863c-1.174-3.154-2.391-6.291-3.61-9.427-.94-2.419-2.358-5.194-1.727-7.865.512-2.17,2.344-3.557,4.088-4.751,2.568-1.76,5.227-3.4,7.938-4.928a115.786,115.786,0,0,1,16.181-7.563q4.932-1.858,10.023-3.249c9.9-2.717,8.544,10.547,9.071,17.458,1.124,14.727-.58,29.478-.53,44.213a123.394,123.394,0,0,0,4.311,32.079c2.781,10.3,5.984,20.462,8.443,30.852a372.027,372.027,0,0,1,9.207,61.737,424.355,424.355,0,0,1-2.224,78.294c-2.735,22.561-4.439,52.66-19.05,71-1.069,1.341-2.658,3.212-4.583,2.283a7.626,7.626,0,0,1-2.292-2.4q-1.429-1.819-2.894-3.606-5.588-6.816-11.7-13.178a225.588,225.588,0,0,0-26.919-23.891q-7.04-5.3-14.479-10.049-3.654-2.329-7.4-4.517c-2.022-1.18-4.292-2.269-5.777-4.145-1.588-2.009-1.563-4.571-1.635-7.01q-.145-4.841-.075-9.685" transform="translate(11.392 48.616)" fill="#f0f0f0"/>
        <path id="Trazado_387" data-name="Trazado 387" d="M50.323,263.1c1.813,5.911,5.565,11.561,11.06,14.613a17.662,17.662,0,0,0,9.351,2.2A21.563,21.563,0,0,0,80.442,277c6.155-3.531,10.22-9.717,12.551-16.286,2.719-7.665,3.129-15.892,3.5-23.942a.323.323,0,0,0-.388-.338.347.347,0,0,0-.22-.032q-4.932.9-9.927,1.376a116.8,116.8,0,0,1-35.22-2.017.354.354,0,0,0-.155,0,.28.28,0,0,0-.361.247q-.209,1.491-.412,2.984c-1.062,7.94-1.878,16.314.514,24.1m.542-26.58q4.759.995,9.586,1.6a117.132,117.132,0,0,0,35.309-.968c-.042.879-.082,1.758-.127,2.636-.4,7.673-1.1,15.489-4.063,22.658-2.616,6.337-7.053,12.039-13.4,14.927a19.631,19.631,0,0,1-9.758,1.784,17.219,17.219,0,0,1-8.591-3.289c-5.023-3.646-8.191-9.525-9.463-15.511-1.672-7.862-.587-15.971.511-23.836" transform="translate(21.402 103.461)" fill="#83628c"/>
        <path id="Trazado_388" data-name="Trazado 388" d="M113.729,29.381C91.8,26.076,68.135,35.531,58.9,55.576a60.383,60.383,0,0,0-4.885,17.891,139.641,139.641,0,0,0,16.835-2.115A91.251,91.251,0,0,0,88.939,66a66.549,66.549,0,0,0,14.712-8.427,57.53,57.53,0,0,0,10.7-10.622,48.663,48.663,0,0,1-9.964,14.719,47.049,47.049,0,0,1-5.778,4.971c-.368.269-.012.889.361.617A49.3,49.3,0,0,0,115.617,45.8c.17-.423.327-.853.483-1.281.1-.153.2-.305.308-.458a44.141,44.141,0,0,1-4.82,14.216c-.222.4.4.765.617.36A44.891,44.891,0,0,0,116.977,45a44.021,44.021,0,0,0,7.276,11.868A43.4,43.4,0,0,0,150.78,71.39c-2.711-19.84-14.814-38.658-37.05-42.009" transform="translate(23.705 12.61)" fill="#39354d"/>
        <path id="Trazado_389" data-name="Trazado 389" d="M72.577,250.483,72.3,250.3c-.232-.157-.426-.294-.872-2.75l-4.417-24.279-52.2,9.495.344,1.892A5.767,5.767,0,0,1,3.81,236.723L.095,216.3a5.766,5.766,0,1,1,11.345-2.063l.345,1.891,52.2-9.5-4.416-24.279c-.42-2.308-.512-3.045.348-3.2l14.839-2.7c.86-.155,1.037.571,1.456,2.876l.082.447,200.955-36.553a2.858,2.858,0,0,1,3.324,2.3l1.353,7.436a5.77,5.77,0,0,1,6.065,4.722l2.485,13.662,64.327-10.18.145.013h.1l.105.026a.619.619,0,0,1,.121.039,1.155,1.155,0,0,1,.735.846l.027.124-.012.089a1.147,1.147,0,0,1-.386.881l-.138.111a1.007,1.007,0,0,1-.206.1.615.615,0,0,1-.2.066l-63.672,13.1,2.486,13.662a5.778,5.778,0,0,1-4.014,6.555l1.351,7.436a2.86,2.86,0,0,1-2.3,3.324L87.994,244.076l.082.447c.419,2.308.511,3.046-.348,3.206Zm.039-1.57h0Zm-4.363-27.43,4.692,25.793c.117.646.23,1.165.317,1.519L86.8,246.333c-.042-.361-.119-.888-.237-1.535l-.357-1.961,65.737-11.955,136.734-24.872a1.326,1.326,0,0,0,1.062-1.537l-1.626-8.948.866-.124a4.233,4.233,0,0,0,3.42-4.919l-2.754-15.14,48.776-10.036-49.183,7.784-2.755-15.141a4.239,4.239,0,0,0-4.918-3.4l-.78.174-.235-.764-1.483-8.164a1.32,1.32,0,0,0-.551-.847,1.3,1.3,0,0,0-.986-.216L75.06,181.556,74.7,179.6c-.118-.646-.233-1.165-.318-1.519l-13.54,2.462c.045.363.121.889.239,1.535l4.692,25.791L10.548,217.912l-.619-3.4a4.229,4.229,0,1,0-8.322,1.514l3.715,20.427a4.239,4.239,0,0,0,4.918,3.4,4.247,4.247,0,0,0,3.406-4.918l-.622-3.4Z" transform="translate(0 62.829)" fill="#39354d"/>
        <g id="Grupo_335" data-name="Grupo 335" transform="translate(68.953 231.927)" opacity="0.6">
          <g id="Grupo_334" data-name="Grupo 334">
            <g id="Grupo_333" data-name="Grupo 333" clip-path="url(#clip-path-14)">
              <path id="Trazado_390" data-name="Trazado 390" d="M124.845,201.117c-1.46-8.691-2.852-17.393-4.259-26.092-.732-4.529-1.659-9.18-2.354-13.837L49.637,173.666a2.1,2.1,0,0,0-1.682,2.43l10.673,58.682a2.1,2.1,0,0,0,2.43,1.682l67.578-12.292q-1.869-11.529-3.793-23.05" transform="translate(-47.922 -161.189)" fill="#f0f0f0"/>
            </g>
          </g>
        </g>
        <g id="Grupo_338" data-name="Grupo 338" transform="translate(142.018 206.767)" opacity="0.6">
          <g id="Grupo_337" data-name="Grupo 337">
            <g id="Grupo_336" data-name="Grupo 336" clip-path="url(#clip-path-15)">
              <path id="Trazado_391" data-name="Trazado 391" d="M234.076,143.737,98.7,168.362c.891,5.134,1.515,10.36,2.348,15.371,1.4,8.445,2.859,16.882,4.209,25.335,1.188,7.442,2.376,14.883,3.5,22.334L245.5,206.532a2.1,2.1,0,0,0,1.682-2.43l-10.673-58.682a2.1,2.1,0,0,0-2.43-1.682" transform="translate(-98.703 -143.703)" fill="#b386cf"/>
            </g>
          </g>
        </g>
        <path id="Trazado_392" data-name="Trazado 392" d="M110.111,159.879l-20.029,3.643a5.613,5.613,0,0,0,.176,2.092L100.931,224.3a5.612,5.612,0,0,0,.573,2.02l20.029-3.643a5.593,5.593,0,0,0-.174-2.092L110.683,161.9a5.612,5.612,0,0,0-.573-2.02" transform="translate(39.511 70.163)" fill="#39354d"/>
        <path id="Trazado_393" data-name="Trazado 393" d="M56.586,166.821l-14.836,2.7a9.176,9.176,0,0,0,.268,2.311l11.86,65.2a9.189,9.189,0,0,0,.563,2.258l14.836-2.7a9.092,9.092,0,0,0-.268-2.311l-11.86-65.2a9.238,9.238,0,0,0-.563-2.258" transform="translate(18.311 73.209)" fill="#39354d"/>
        <path id="Trazado_394" data-name="Trazado 394" d="M5.092,198.962l2.7,14.836a9.177,9.177,0,0,0,2.311-.268l65.2-11.86a9.236,9.236,0,0,0,2.258-.563l-2.7-14.836a9.093,9.093,0,0,0-2.311.268L7.35,198.4a9.161,9.161,0,0,0-2.258.563" transform="translate(2.235 81.734)" fill="#39354d"/>
        <path id="Trazado_395" data-name="Trazado 395" d="M10.948,220.043l-1.534.279a4.232,4.232,0,0,1-4.905-3.4L.515,194.965a4.23,4.23,0,0,1,3.4-4.905l1.532-.279a4.23,4.23,0,0,1,4.906,3.4l3.994,21.96a4.231,4.231,0,0,1-3.4,4.906" transform="translate(0.196 83.255)" fill="#39354d"/>
        <path id="Trazado_396" data-name="Trazado 396" d="M270.676,159.019a.386.386,0,0,0-.265-.285l-.026-.01a.426.426,0,0,0-.086,0,.406.406,0,0,0-.059,0L205.274,169l-2.619-14.4a5,5,0,0,0-9.836,1.789l5.918,32.531a5,5,0,1,0,9.835-1.788l-2.619-14.4,64.423-13.255a.388.388,0,0,0,.056-.024.425.425,0,0,0,.079-.035c.007,0,.011-.013.019-.019a.38.38,0,0,0,.148-.36l0-.009v-.009" transform="translate(84.583 66.044)" fill="#39354d"/>
        <g id="Grupo_341" data-name="Grupo 341" transform="translate(204.884 237.84)" opacity="0.4" style="mix-blend-mode: overlay;isolation: isolate">
          <g id="Grupo_340" data-name="Grupo 340">
            <g id="Grupo_339" data-name="Grupo 339" clip-path="url(#clip-path-16)">
              <path id="Trazado_397" data-name="Trazado 397" d="M153.929,165.3a11.535,11.535,0,1,0,11.534,11.534A11.534,11.534,0,0,0,153.929,165.3" transform="translate(-142.394 -165.299)" fill="#320032"/>
            </g>
          </g>
        </g>
        <g id="Grupo_344" data-name="Grupo 344" transform="translate(250.253 247.068)" opacity="0.4" style="mix-blend-mode: overlay;isolation: isolate">
          <g id="Grupo_343" data-name="Grupo 343">
            <g id="Grupo_342" data-name="Grupo 342" clip-path="url(#clip-path-17)">
              <path id="Trazado_398" data-name="Trazado 398" d="M182,171.712a8.074,8.074,0,1,0,8.075,8.073A8.073,8.073,0,0,0,182,171.712" transform="translate(-173.926 -171.712)" fill="#320032"/>
            </g>
          </g>
        </g>
        <g id="Grupo_347" data-name="Grupo 347" transform="translate(238.718 263.216)" opacity="0.4" style="mix-blend-mode: overlay;isolation: isolate">
          <g id="Grupo_346" data-name="Grupo 346">
            <g id="Grupo_345" data-name="Grupo 345" clip-path="url(#clip-path-18)">
              <path id="Trazado_399" data-name="Trazado 399" d="M170.138,182.935a4.229,4.229,0,1,0,4.229,4.229,4.229,4.229,0,0,0-4.229-4.229" transform="translate(-165.909 -182.935)" fill="#320032"/>
            </g>
          </g>
        </g>
        <g id="Grupo_350" data-name="Grupo 350" transform="translate(198.732 245.53)" opacity="0.4" style="mix-blend-mode: overlay;isolation: isolate">
          <g id="Grupo_349" data-name="Grupo 349">
            <g id="Grupo_348" data-name="Grupo 348" clip-path="url(#clip-path-19)">
              <path id="Trazado_400" data-name="Trazado 400" d="M144.655,170.643a6.536,6.536,0,1,0,6.537,6.537,6.537,6.537,0,0,0-6.537-6.537" transform="translate(-138.119 -170.643)" fill="#320032"/>
            </g>
          </g>
        </g>
        <g id="Grupo_353" data-name="Grupo 353" transform="translate(163.014 252.304)" opacity="0.4" style="mix-blend-mode: overlay;isolation: isolate">
          <g id="Grupo_352" data-name="Grupo 352">
            <g id="Grupo_351" data-name="Grupo 351" clip-path="url(#clip-path-20)">
              <path id="Trazado_401" data-name="Trazado 401" d="M113.3,184.565a8.913,8.913,0,1,0,8.607-9.209,8.914,8.914,0,0,0-8.607,9.209" transform="translate(-113.295 -175.351)" fill="#320032"/>
            </g>
          </g>
        </g>
        <g id="Grupo_356" data-name="Grupo 356" transform="translate(170.586 230.921)" opacity="0.4" style="mix-blend-mode: overlay;isolation: isolate">
          <g id="Grupo_355" data-name="Grupo 355">
            <g id="Grupo_354" data-name="Grupo 354" clip-path="url(#clip-path-21)">
              <path id="Trazado_402" data-name="Trazado 402" d="M118.561,166.94a6.239,6.239,0,1,0,6.023-6.446,6.239,6.239,0,0,0-6.023,6.446" transform="translate(-118.557 -160.49)" fill="#320032"/>
            </g>
          </g>
        </g>
        <g id="Grupo_359" data-name="Grupo 359" transform="translate(183.46 245.448)" opacity="0.4" style="mix-blend-mode: overlay;isolation: isolate">
          <g id="Grupo_358" data-name="Grupo 358">
            <g id="Grupo_357" data-name="Grupo 357" clip-path="url(#clip-path-22)">
              <path id="Trazado_403" data-name="Trazado 403" d="M127.507,173.965a3.268,3.268,0,1,0,3.155-3.377,3.267,3.267,0,0,0-3.155,3.377" transform="translate(-127.505 -170.586)" fill="#320032"/>
            </g>
          </g>
        </g>
        <g id="Grupo_362" data-name="Grupo 362" transform="translate(256.14 222.414)" opacity="0.4" style="mix-blend-mode: overlay;isolation: isolate">
          <g id="Grupo_361" data-name="Grupo 361">
            <g id="Grupo_360" data-name="Grupo 360" clip-path="url(#clip-path-23)">
              <path id="Trazado_404" data-name="Trazado 404" d="M178.02,159.8a5.051,5.051,0,1,0,4.878-5.219,5.052,5.052,0,0,0-4.878,5.219" transform="translate(-178.017 -154.578)" fill="#320032"/>
            </g>
          </g>
        </g>
        <path id="Trazado_405" data-name="Trazado 405" d="M72.8,121.829c5.537-2.515,15.483-7.773,21.669-5.758a9.066,9.066,0,0,1,5.056,4.577,16.524,16.524,0,0,1,1.591,6.76c.5,10.429-5.151,18.627-11.919,25.947-11.209,12.124-25.97,24.079-36.528,37.9,1.964,1.2,3.763,2.394,5.124,3.178,11.978,6.9,23.7,15.232,37.212,18.508q-.231.848-.462,1.692c-.852,3.129-1.669,6.266-2.488,9.4-.283,1.083-.573,2.168-.852,3.253-3.03-.62-6.224-.8-9.184-1.229a199.569,199.569,0,0,1-32.449-7.527q-8.037-2.59-15.836-5.855c-7.4-3.1-17.229-6.463-20.742-14.35-4.122-9.256,2.155-19.422,6.705-27.22,12.108-20.748,31.124-39.3,53.1-49.281" transform="translate(5.114 50.74)" fill="#b386cf"/>
        <path id="Trazado_406" data-name="Trazado 406" d="M74.738,120.7c5.7-2.666,14.318-6.695,19.957-4.859a9.4,9.4,0,0,1,5.263,4.754,16.665,16.665,0,0,1,1.63,6.905c.532,11.068-5.774,19.459-12.013,26.207-4.24,4.586-8.891,9.055-13.814,13.786-7.837,7.531-15.937,15.315-22.452,23.773.728.449,1.43.892,2.092,1.312.986.623,1.918,1.213,2.685,1.655,2.458,1.416,4.945,2.918,7.353,4.37,5.291,3.191,10.76,6.491,16.365,9.177a.355.355,0,0,1,.163.485A37.091,37.091,0,0,0,78.784,217a22.121,22.121,0,0,0-.18,8.5.358.358,0,0,1-.41.416,200.376,200.376,0,0,1-28.619-6.934c-5.351-1.724-10.688-3.7-15.863-5.865-.688-.288-1.4-.577-2.119-.873-5.883-2.41-12.986-5.319-16.987-10.593a15.5,15.5,0,0,1-1.824-3.068c-4.059-9.112,1.662-18.894,6.259-26.753l.463-.793c12.732-21.82,32.147-39.835,53.263-49.426.609-.276,1.269-.586,1.971-.914" transform="translate(5.002 50.632)" fill="#f0f0f0"/>
        <path id="Trazado_407" data-name="Trazado 407" d="M65.76,199.182c-.3-2.488.446-5.305.858-7.576.5-2.761,1.331-5.38,3.453-7.312,1.921-1.75,4.243-2.5,6.422-3.587a15.4,15.4,0,0,0,2.622-2.129c.489-.517.935-1.085,1.381-1.649a12.624,12.624,0,0,1,1.317-1.567.917.917,0,0,1,1.281-.145,2.071,2.071,0,0,1,.509,1.27,6.667,6.667,0,0,1,0,1.515,14.37,14.37,0,0,1-4.681,8.466,18.247,18.247,0,0,0,4.124.786,41.507,41.507,0,0,1,12.7,3.639,16.182,16.182,0,0,1,4.14,2.127c1.318,1.158,1.17,3.032-.945,3.02-1.532-.009-3.06-.155-4.576-.3a47.328,47.328,0,0,1-5.16-.411c4.443,2.613,10.486,6.553,10.374,8.589-.1,1.8-5.327.2-9.909-1.563a38.847,38.847,0,0,1,4.548,5.374q.388.553.757,1.118c.906,1.39.458,2.977-1.239,2.571-1.776-.426-3.435-1.81-4.895-2.879-.783-.511-1.56-1.033-2.324-1.577-.512-.365-1.017-.744-1.519-1.127.23.486.433.989.623,1.5,1.719,2.9,3.442,6.744,2.973,8.47-1.1,4.048-7.41-7.361-8.407-8.961a2.926,2.926,0,0,0-.3-.423,7.669,7.669,0,0,0-1.64-.419c-.319-.032-.639-.069-.955-.111a28.481,28.481,0,0,1-4.522-.432,12.9,12.9,0,0,1-4.776-2.122,5.872,5.872,0,0,1-2.233-4.153" transform="translate(28.828 76.804)" fill="#b386cf"/>
        <path id="Trazado_408" data-name="Trazado 408" d="M113.757,142.005a9.758,9.758,0,0,0-7.462-3.626,24.531,24.531,0,0,0,7.683-8.492A16.975,16.975,0,0,0,115.5,117.8a13.559,13.559,0,0,0-3.317-6.007c-.319-.331-.826.174-.505.506a14.019,14.019,0,0,1,3.561,10.915,18.616,18.616,0,0,1-5.111,10.872,27.345,27.345,0,0,1-5.409,4.5.359.359,0,0,0,.276.653,8.526,8.526,0,0,1,7.816,2.778,12.5,12.5,0,0,1,3.06,9.035,28.3,28.3,0,0,1-2.42,10.1,53.13,53.13,0,0,1-4.93,8.991c-2.16,3.242-4.561,6.314-6.987,9.36-.283.357.219.866.506.506,4.486-5.636,8.984-11.424,11.853-18.086,2.609-6.058,4.578-14.338-.137-19.922" transform="translate(44.521 49.014)" fill="#83628c"/>
        <path id="Trazado_409" data-name="Trazado 409" d="M71.078,142.744a9.766,9.766,0,0,1,7.2-4.118,24.518,24.518,0,0,1-8.235-7.958,16.968,16.968,0,0,1-2.324-11.955A13.545,13.545,0,0,1,70.63,112.5c.3-.353.835.119.538.471A14.017,14.017,0,0,0,68.343,124.1,18.635,18.635,0,0,0,74.169,134.6a27.438,27.438,0,0,0,5.7,4.125.359.359,0,0,1-.232.671,8.528,8.528,0,0,0-7.613,3.295,12.5,12.5,0,0,0-2.449,9.219,28.271,28.271,0,0,0,3.091,9.919,53.206,53.206,0,0,0,5.519,8.642c2.373,3.091,4.974,5.994,7.6,8.872.308.337-.16.878-.471.538-4.853-5.324-9.729-10.8-13.037-17.252-3.009-5.87-5.527-14-1.2-19.888" transform="translate(29.599 49.315)" fill="#83628c"/>
        <path id="Trazado_410" data-name="Trazado 410" d="M43.04,169.8a8.111,8.111,0,0,0-3.6-5.553c-.387-.25-.747.367-.361.617a7.392,7.392,0,0,1,3,4.016,12.808,12.808,0,0,0-6.341-3.086c-.449-.078-.643.612-.19.689a12.179,12.179,0,0,1,6.771,3.629.318.318,0,0,0,.233.105.386.386,0,0,0,.229.023.367.367,0,0,0,.25-.44" transform="translate(15.491 72.054)" fill="#83628c"/>
        <path id="Trazado_411" data-name="Trazado 411" d="M125.373,148.346A40.782,40.782,0,0,0,123.9,158.49a.358.358,0,0,0,.715,0,39.939,39.939,0,0,1,1.445-9.954.357.357,0,0,0-.688-.19" transform="translate(54.374 64.991)" fill="#83628c"/>
        <path id="Trazado_412" data-name="Trazado 412" d="M64.43,147.18c.219-.4-.4-.767-.617-.361a17.191,17.191,0,0,1-8.232,7.58c-.3.129-.2.473.03.6a.255.255,0,0,0,.083.068,7.746,7.746,0,0,0,5.519.229c.433-.147.247-.837-.19-.689a7.037,7.037,0,0,1-4.374.062,17.818,17.818,0,0,0,7.78-7.488" transform="translate(24.31 64.354)" fill="#83628c"/>
      </g>
    </g>
  </g>
</svg>
