<svg xmlns="http://www.w3.org/2000/svg" xmlns:xlink="http://www.w3.org/1999/xlink" width="37" height="30" viewBox="0 0 37 30">
  <defs>
    <clipPath id="clip-path">
      <rect id="Rect치ngulo_169" data-name="Rect치ngulo 169" width="15.523" height="22.606" fill="#25336c"/>
    </clipPath>
  </defs>
  <g id="Grupo_227" data-name="Grupo 227" transform="translate(-38 -460)">
    <g id="Grupo_210" data-name="Grupo 210" transform="translate(49 464)">
      <g id="Grupo_209" data-name="Grupo 209" clip-path="url(#clip-path)">
        <path id="Trazado_287" data-name="Trazado 287" d="M0,11.3c0-2.71,0-5.421,0-8.131A2.864,2.864,0,0,1,3.152.005q4.6-.01,9.192,0a2.9,2.9,0,0,1,3.169,3.167q.017,8.131,0,16.263A2.9,2.9,0,0,1,12.343,22.6q-4.6.01-9.192,0A2.865,2.865,0,0,1,0,19.434C0,16.723,0,14.013,0,11.3m13.435,2.807c0-3.764.007-7.437-.006-11.11,0-.693-.274-.9-1.052-.9q-4.558-.006-9.116,0c-1.034,0-1.18.146-1.181,1.188q0,5.053,0,10.105c0,.229.021.458.034.722ZM2.09,16.266c0,1.214-.008,2.364,0,3.513a.685.685,0,0,0,.773.729c3.249.005,6.5.018,9.748-.025.269,0,.748-.389.763-.621.078-1.186.036-2.379.036-3.6Z" transform="translate(0 0)" fill="#25336c"/>
        <path id="Trazado_288" data-name="Trazado 288" d="M42.342,124.911c.423,0,.847-.015,1.27,0,.442.019.775.28.678.7a.988.988,0,0,1-.67.633,25.749,25.749,0,0,1-2.749.024c-.428-.01-.785-.259-.674-.7a1.048,1.048,0,0,1,.669-.634,7.059,7.059,0,0,1,1.476-.029" transform="translate(-34.494 -107.221)" fill="#25336c"/>
      </g>
    </g>
    <rect id="Rect치ngulo_176" data-name="Rect치ngulo 176" width="37" height="30" transform="translate(38 460)" fill="none"/>
  </g>
</svg>
