<svg xmlns="http://www.w3.org/2000/svg" width="37" height="30" viewBox="0 0 37 30">
  <g id="Grupo_225" data-name="Grupo 225" transform="translate(-38 -375)">
    <g id="Grupo_224" data-name="Grupo 224" transform="translate(0 -0.614)">
      <path id="Trazado_283" data-name="Trazado 283" d="M9.873,0a9.936,9.936,0,0,1,9.883,9.888A9.878,9.878,0,1,1,9.873,0M1.822,9.825a8.059,8.059,0,1,0,8.122-8,8.069,8.069,0,0,0-8.122,8" transform="translate(47 380.614)" fill="#25336c"/>
      <path id="Trazado_284" data-name="Trazado 284" d="M44.937,66.34c1.036-1.037,2.023-2.028,3.013-3.018q1-1,1.645-.358c.447.447.341.95-.35,1.641q-1.705,1.707-3.413,3.411c-.68.675-1.1.675-1.782,0q-1.8-1.788-3.587-3.588c-.52-.526-.568-1.065-.164-1.463a.958.958,0,0,1,1.42.15c1.055,1.044,2.1,2.1,3.218,3.227" transform="translate(11.925 325.664)" fill="#25336c"/>
    </g>
    <rect id="Rectángulo_176" data-name="Rectángulo 176" width="37" height="30" transform="translate(38 375)" fill="none"/>
  </g>
</svg>
