<svg xmlns="http://www.w3.org/2000/svg" xmlns:xlink="http://www.w3.org/1999/xlink" width="37" height="30" viewBox="0 0 37 30">
  <defs>
    <clipPath id="clip-path">
      <rect id="Rect치ngulo_171" data-name="Rect치ngulo 171" width="18.388" height="20.992" fill="#25336c"/>
    </clipPath>
  </defs>
  <g id="Grupo_228" data-name="Grupo 228" transform="translate(-38 -501)">
    <g id="Grupo_214" data-name="Grupo 214" transform="translate(47 506)">
      <g id="Grupo_213" data-name="Grupo 213" clip-path="url(#clip-path)">
        <path id="Trazado_290" data-name="Trazado 290" d="M3.95,2.607c0-.674,0-1.261,0-1.848,0-.433.161-.752.622-.759s.636.335.647.749c.015.588,0,1.177,0,1.811h7.933c0-.583.007-1.165,0-1.747-.007-.45.129-.814.635-.811s.634.393.639.824c.007.565,0,1.13,0,1.78.4,0,.742,0,1.084,0a2.622,2.622,0,0,1,2.844,2.7q.065,6.471,0,12.942a2.614,2.614,0,0,1-2.817,2.729Q9.168,21,2.8,20.982A2.623,2.623,0,0,1,.007,18.169Q-.008,11.8.007,5.424A2.639,2.639,0,0,1,2.8,2.608c.349-.006.7,0,1.154,0m13.123,3.91c.011-.234.023-.386.024-.538.019-1.736-.325-2.087-2.045-2.087H3.43c-1.891,0-2.179.289-2.149,2.159,0,.147.022.293.036.465ZM6.85,15.4h4.6V12.1c-1.449,0-2.864-.007-4.278.014a.444.444,0,0,0-.307.307C6.84,13.4,6.85,14.377,6.85,15.4M12.8,15.38H17.06V12.157H12.8ZM5.522,12.158H1.313V15.4H5.522ZM6.85,7.876c0,.906-.011,1.775.014,2.642a.445.445,0,0,0,.313.3c1.414.021,2.829.014,4.268.014V7.876Zm4.6,8.829c-1.445,0-2.86-.005-4.274.011-.109,0-.309.151-.312.236-.023.906-.014,1.813-.014,2.7h4.6Zm1.353-5.911h4.245V7.875H12.808Zm-11.5,0H5.523v-2.9H1.313Zm11.48,8.9c1.056,0,2.039.025,3.021-.008a1.183,1.183,0,0,0,1.232-1.13,16.365,16.365,0,0,0,.013-1.8H12.793ZM1.306,16.739c0,.659-.034,1.249.009,1.834a1.091,1.091,0,0,0,1.049,1.082c1.041.064,2.088.018,3.164.018V16.739Z" transform="translate(0 0)" fill="#25336c"/>
      </g>
    </g>
    <rect id="Rect치ngulo_176" data-name="Rect치ngulo 176" width="37" height="30" transform="translate(38 501)" fill="none"/>
  </g>
</svg>
