<svg xmlns="http://www.w3.org/2000/svg" xmlns:xlink="http://www.w3.org/1999/xlink" width="37" height="30" viewBox="0 0 37 30">
  <defs>
    <clipPath id="clip-path">
      <rect id="Rect치ngulo_174" data-name="Rect치ngulo 174" width="15" height="19" transform="translate(0 -0.392)" fill="#25336c"/>
    </clipPath>
  </defs>
  <g id="Grupo_230" data-name="Grupo 230" transform="translate(-38 -579)">
    <g id="Grupo_220" data-name="Grupo 220" transform="translate(49 585.392)">
      <g id="Grupo_219" data-name="Grupo 219" clip-path="url(#clip-path)">
        <path id="Trazado_294" data-name="Trazado 294" d="M13.633,7.677a2.078,2.078,0,0,0-.559-.14,6.594,6.594,0,0,0-3.4,1.254l-.033-.033a34.546,34.546,0,0,0,.854-5.1C10.5,1.058,9.109,0,6.557,0,2.374,0,.255,4.132.255,7.211c0,3.194,1.864,4.964,5.037,4.964.436,0,.4-.036.4.138-.614,4.685-3.3,4.838-3.3,3.438,0-1.425,1.635-2.129,1.653-2.217-.01-.443-1.707-1-2.14-1C.672,12.535,0,14.392,0,15.414a2.967,2.967,0,0,0,3.108,3.195c2.813,0,4.871-2.828,5.5-5.285.549-2.2.407-2.3.716-2.457a7.026,7.026,0,0,1,3.409-.98,13.31,13.31,0,0,1,2.141.3.26.26,0,0,0,.243-.211,7.623,7.623,0,0,0-1.486-2.3M7.262,4.608c-.338,1.625-.676,3.256-1.011,4.881-.084.371-.483.284-.8.284-1.392,0-1.781-1.52-1.781-2.658,0-1.708.654-3.972,2.246-4.847a1.637,1.637,0,0,1,.821-.244c.676,0,.727.484.727,1.043a7.805,7.805,0,0,1-.2,1.541" fill="#25336c"/>
      </g>
    </g>
    <rect id="Rect치ngulo_176" data-name="Rect치ngulo 176" width="37" height="30" transform="translate(38 579)" fill="none"/>
  </g>
</svg>
