<svg xmlns="http://www.w3.org/2000/svg" xmlns:xlink="http://www.w3.org/1999/xlink" width="37" height="30" viewBox="0 0 37 30">
  <defs>
    <clipPath id="clip-path">
      <rect id="Rect치ngulo_182" data-name="Rect치ngulo 182" width="25.539" height="18.991" fill="#25336c"/>
    </clipPath>
  </defs>
  <g id="Grupo_294" data-name="Grupo 294" transform="translate(-6769 185)">
    <rect id="Rect치ngulo_175" data-name="Rect치ngulo 175" width="37" height="30" transform="translate(6769 -185)" fill="none"/>
    <g id="Grupo_293" data-name="Grupo 293" transform="translate(6773.73 -179)">
      <g id="Grupo_292" data-name="Grupo 292" transform="translate(0 0)" clip-path="url(#clip-path)">
        <path id="Trazado_336" data-name="Trazado 336" d="M21.517,29.228c-.451-.576-.844-1.1-1.2-1.613l.653-.459c.35.5.734,1.014,1.177,1.58Z" transform="translate(-12.209 -16.32)" fill="#25336c"/>
        <path id="Trazado_337" data-name="Trazado 337" d="M24.341,18.992h0a2.556,2.556,0,0,1-1.933-.882c-.273-.315-.561-.644-.86-.985l-.182-.208.6-.525.182.208c.3.342.588.672.862.988a1.761,1.761,0,0,0,2.66,0c.275-.317.565-.648.865-.992,2.909-3.324,6.892-7.876,6.892-10.623a6.647,6.647,0,0,0-.245-1.79A4.592,4.592,0,0,0,29.4.857a4.722,4.722,0,0,0-4.728,2.107l-.334.515-.334-.515A4.721,4.721,0,0,0,19.28.857,4.592,4.592,0,0,0,15.5,4.181a6.643,6.643,0,0,0-.245,1.791,5.9,5.9,0,0,0,.755,2.521l-.713.359a6.569,6.569,0,0,1-.84-2.88,7.444,7.444,0,0,1,.274-2.006,5.382,5.382,0,0,1,4.429-3.9,5.506,5.506,0,0,1,5.182,2,5.5,5.5,0,0,1,5.182-2,5.381,5.381,0,0,1,4.429,3.9,7.42,7.42,0,0,1,.275,2.006c0,3.047-3.931,7.539-7.09,11.149-.3.342-.589.673-.863.989a2.557,2.557,0,0,1-1.933.882" transform="translate(-8.687 0)" fill="#25336c"/>
        <path id="Trazado_338" data-name="Trazado 338" d="M11.806,22.961a.737.737,0,0,1-.729-.6L9.229,13.279a.066.066,0,0,0-.066-.049.06.06,0,0,0-.072.055l-2,5.979A.873.873,0,0,1,5.4,19.113l-.53-3.625a1.1,1.1,0,0,0-1.077-.958H0v-.8H3.789a1.911,1.911,0,0,1,1.867,1.641L6.186,19a.065.065,0,0,0,.067.064.068.068,0,0,0,.078-.051l2-5.979a.869.869,0,0,1,1.674.075l1.8,8.833,2.024-10.895a.759.759,0,0,1,.753-.631h0a.759.759,0,0,1,.752.634l.835,5.386.312-1.06a1.7,1.7,0,0,1,1.638-1.241h1.831v.8H18.122a.911.911,0,0,0-.872.669L16.8,17.135a.687.687,0,0,1-1.338-.089l-.878-5.666L12.546,22.325a.732.732,0,0,1-.71.636h-.03" transform="translate(0 -6.258)" fill="#25336c"/>
        <path id="Trazado_339" data-name="Trazado 339" d="M50.2,20.125a1.2,1.2,0,1,1,1.2-1.2,1.2,1.2,0,0,1-1.2,1.2m0-1.6a.4.4,0,1,0,.4.4.4.4,0,0,0-.4-.4" transform="translate(-29.446 -10.655)" fill="#25336c"/>
      </g>
    </g>
  </g>
</svg>
