<svg xmlns="http://www.w3.org/2000/svg" xmlns:xlink="http://www.w3.org/1999/xlink" width="37" height="30" viewBox="0 0 37 30">
  <defs>
    <clipPath id="clip-path">
      <rect id="Rect치ngulo_167" data-name="Rect치ngulo 167" width="21.514" height="17.452" fill="#25336c"/>
    </clipPath>
  </defs>
  <g id="Grupo_223" data-name="Grupo 223" transform="translate(-38 -331)">
    <g id="Grupo_206" data-name="Grupo 206" transform="translate(46 337)">
      <g id="Grupo_205" data-name="Grupo 205" clip-path="url(#clip-path)">
        <path id="Trazado_276" data-name="Trazado 276" d="M14.139,17.11V17.1c2.111,0,4.222.013,6.332-.008a.947.947,0,0,0,1.042-.987.971.971,0,0,0-1.018-.948c-.156-.014-.314-.011-.471-.011q-5.895,0-11.789,0a4.2,4.2,0,0,0-.671.04.952.952,0,0,0-.023,1.875,4.215,4.215,0,0,0,.738.045q2.931,0,5.861,0M14.8,3.616c1.8,0,3.593.005,5.389,0,.885,0,1.329-.349,1.321-.991s-.446-.955-1.344-.969h-.135q-5.22,0-10.44,0a3.715,3.715,0,0,0-.737.05.871.871,0,0,0-.743.908.878.878,0,0,0,.766.955,4,4,0,0,0,.737.046q2.593.005,5.186,0m0,4.784v0c-1.864,0-3.727-.012-5.59.006-.71.007-1.119.411-1.1,1,.016.565.4.906,1.087.95.157.01.314.005.471.005q5.153,0,10.306,0a4.376,4.376,0,0,0,.8-.053A.861.861,0,0,0,21.5,9.39a.862.862,0,0,0-.712-.931,4.059,4.059,0,0,0-.8-.056c-1.729,0-3.458,0-5.187,0M2.535,9.711a10.549,10.549,0,0,0-.8-.957A1,1,0,0,0,.289,8.7a.96.96,0,0,0,.018,1.392c.527.581,1.087,1.135,1.665,1.666a.922.922,0,0,0,1.39-.018c1.048-1.109,2.084-2.233,3.062-3.4a.943.943,0,0,0-.648-1.594,1.579,1.579,0,0,0-.971.484c-.742.745-1.426,1.549-2.271,2.482m-.043-6.7a8.6,8.6,0,0,0-.78-1.015A.984.984,0,0,0,.319,1.923a.973.973,0,0,0,0,1.443c.513.564,1.057,1.1,1.616,1.621a.921.921,0,0,0,1.39.032C4.405,3.88,5.46,2.714,6.459,1.5A1.2,1.2,0,0,0,6.492.462,1.008,1.008,0,0,0,5.688,0a1.555,1.555,0,0,0-.9.5c-.734.751-1.422,1.548-2.295,2.512M1.356,16.127a1.29,1.29,0,0,0,1.306,1.325,1.323,1.323,0,0,0,0-2.646,1.29,1.29,0,0,0-1.309,1.322" transform="translate(0 0)" fill="#25336c"/>
        <path id="Trazado_277" data-name="Trazado 277" d="M57.509,114.215q-2.931,0-5.861,0a4.226,4.226,0,0,1-.738-.045.952.952,0,0,1,.023-1.875,4.2,4.2,0,0,1,.671-.04q5.895,0,11.789,0c.157,0,.315,0,.471.011a.971.971,0,0,1,1.018.948.947.947,0,0,1-1.042.987c-2.111.021-4.221.008-6.332.008v.008" transform="translate(-43.37 -97.105)" fill="#25336c"/>
        <path id="Trazado_278" data-name="Trazado 278" d="M66.82,14.213q-2.593,0-5.186,0a3.984,3.984,0,0,1-.737-.046.952.952,0,0,1-.023-1.863,3.7,3.7,0,0,1,.737-.05q5.22,0,10.44,0h.135c.9.015,1.336.33,1.344.969s-.436.987-1.321.991c-1.8.008-3.592,0-5.389,0" transform="translate(-52.016 -10.597)" fill="#25336c"/>
        <path id="Trazado_279" data-name="Trazado 279" d="M66.767,62.248c1.729,0,3.458,0,5.186,0a4.05,4.05,0,0,1,.8.056.954.954,0,0,1-.015,1.85,4.377,4.377,0,0,1-.8.053q-5.153,0-10.306,0c-.157,0-.315,0-.471-.006-.685-.044-1.072-.385-1.087-.95-.016-.586.392-.99,1.1-1,1.863-.018,3.727-.006,5.59-.006Z" transform="translate(-51.967 -53.847)" fill="#25336c"/>
        <path id="Trazado_280" data-name="Trazado 280" d="M2.536,52.946c.845-.934,1.529-1.737,2.271-2.482a1.579,1.579,0,0,1,.971-.484.943.943,0,0,1,.648,1.594c-.978,1.17-2.014,2.294-3.062,3.4A.922.922,0,0,1,1.973,55C1.395,54.464.835,53.91.307,53.329a.96.96,0,0,1-.018-1.392,1,1,0,0,1,1.445.052,10.55,10.55,0,0,1,.8.957" transform="translate(0 -43.235)" fill="#25336c"/>
        <path id="Trazado_281" data-name="Trazado 281" d="M2.5,3.007c.873-.964,1.56-1.761,2.3-2.512a1.555,1.555,0,0,1,.9-.5,1.009,1.009,0,0,1,.8.461A1.2,1.2,0,0,1,6.465,1.5c-1,1.21-2.053,2.376-3.132,3.516a.921.921,0,0,1-1.39-.033C1.385,4.467.84,3.929.328,3.365a.973.973,0,0,1,0-1.443.984.984,0,0,1,1.394.071A8.591,8.591,0,0,1,2.5,3.007" transform="translate(-0.006 0.001)" fill="#25336c"/>
        <path id="Trazado_282" data-name="Trazado 282" d="M10.054,111.042a1.29,1.29,0,0,1,1.309-1.322,1.323,1.323,0,0,1,0,2.646,1.29,1.29,0,0,1-1.306-1.325" transform="translate(-8.697 -94.914)" fill="#25336c"/>
      </g>
    </g>
    <rect id="Rect치ngulo_176" data-name="Rect치ngulo 176" width="37" height="30" transform="translate(38 331)" fill="none"/>
  </g>
</svg>
