<svg xmlns="http://www.w3.org/2000/svg" width="37" height="30" viewBox="0 0 37 30">
  <g id="Grupo_277" data-name="Grupo 277" transform="translate(-6672 128)">
    <rect id="Rectángulo_175" data-name="Rectángulo 175" width="37" height="30" transform="translate(6672 -128)" fill="none"/>
    <g id="Grupo_276" data-name="Grupo 276" transform="translate(70)">
      <path id="Trazado_273" data-name="Trazado 273" d="M2.527,1.9a.634.634,0,0,0-.632.632V15.161a.634.634,0,0,0,.632.632H20.215a.634.634,0,0,0,.632-.632V2.527a.634.634,0,0,0-.632-.632ZM0,2.527A2.529,2.529,0,0,1,2.527,0H20.215a2.529,2.529,0,0,1,2.527,2.527V15.161a2.529,2.529,0,0,1-2.527,2.527H2.527A2.529,2.529,0,0,1,0,15.161Z" transform="translate(6609 -122)" fill="#25336c"/>
      <g id="Grupo_275" data-name="Grupo 275">
        <path id="Trazado_301" data-name="Trazado 301" d="M116.562,368.273h0a.674.674,0,0,0-.932.132,2.381,2.381,0,0,1-3.766,0,.674.674,0,0,0-.932-.132,4.18,4.18,0,0,0-1.731,3.39,1.445,1.445,0,0,0,1.443,1.443h6.206a1.445,1.445,0,0,0,1.443-1.443,4.18,4.18,0,0,0-1.731-3.39m.288,4.112h-6.206a.722.722,0,0,1-.722-.722,3.477,3.477,0,0,1,1.4-2.781,3.1,3.1,0,0,0,4.852,0,3.477,3.477,0,0,1,1.4,2.781.722.722,0,0,1-.722.722" transform="translate(6502.652 -481.523)" fill="#25336c"/>
        <path id="Trazado_302" data-name="Trazado 302" d="M205.951,147.1a2.67,2.67,0,1,0-2.67-2.67,2.673,2.673,0,0,0,2.67,2.67m0-4.618A1.948,1.948,0,1,1,204,144.43a1.951,1.951,0,0,1,1.948-1.948" transform="translate(6410.447 -259.655)" fill="#25336c"/>
      </g>
      <g id="Grupo_274" data-name="Grupo 274">
        <path id="Trazado_303" data-name="Trazado 303" d="M647.927,255.4h4.5c.118,0,.214-.162.214-.361s-.1-.361-.214-.361h-4.5c-.118,0-.214.162-.214.361s.1.361.214.361" transform="translate(5974.878 -369.899)" fill="#25336c"/>
        <path id="Trazado_305" data-name="Trazado 305" d="M647.927,397.585h4.5c.118,0,.214-.162.214-.361s-.1-.361-.214-.361h-4.5c-.118,0-.214.162-.214.361s.1.361.214.361" transform="translate(5974.878 -510.088)" fill="#25336c"/>
        <path id="Trazado_306" data-name="Trazado 306" d="M647.927,468.68h4.5c.118,0,.214-.162.214-.361s-.1-.361-.214-.361h-4.5c-.118,0-.214.162-.214.361s.1.361.214.361" transform="translate(5974.878 -579.183)" fill="#25336c"/>
      </g>
    </g>
  </g>
</svg>
