<svg xmlns="http://www.w3.org/2000/svg" width="37" height="30" viewBox="0 0 37 30">
  <g id="Grupo_290" data-name="Grupo 290" transform="translate(-6826 234)">
    <rect id="Rectángulo_176" data-name="Rectángulo 176" width="37" height="30" transform="translate(6826 -234)" fill="none"/>
    <path id="Trazado_281" data-name="Trazado 281" d="M5.816,7.011c2.035-2.247,3.637-4.105,5.35-5.855A3.625,3.625,0,0,1,13.264,0a2.351,2.351,0,0,1,1.875,1.074A2.8,2.8,0,0,1,15.06,3.5c-2.327,2.82-4.786,5.538-7.3,8.2a2.147,2.147,0,0,1-3.239-.076C3.218,10.413,1.949,9.16.755,7.845A2.268,2.268,0,0,1,.749,4.481,2.293,2.293,0,0,1,4,4.645,20.024,20.024,0,0,1,5.816,7.011" transform="translate(6836.993 -225.201)" fill="#25336c"/>
  </g>
</svg>
