<svg xmlns="http://www.w3.org/2000/svg" xmlns:xlink="http://www.w3.org/1999/xlink" width="37" height="30" viewBox="0 0 37 30">
  <defs>
    <clipPath id="clip-path">
      <rect id="Rect치ngulo_165" data-name="Rect치ngulo 165" width="23" height="18" fill="#25336c"/>
    </clipPath>
  </defs>
  <g id="Grupo_243" data-name="Grupo 243" transform="translate(-38 -216)">
    <g id="Grupo_199" data-name="Grupo 199" transform="translate(45 222)">
      <g id="Grupo_198" data-name="Grupo 198" clip-path="url(#clip-path)">
        <path id="Trazado_274" data-name="Trazado 274" d="M2.556,1.917a.641.641,0,0,0-.639.639V15.333a.641.641,0,0,0,.639.639H20.444a.641.641,0,0,0,.639-.639V2.556a.641.641,0,0,0-.639-.639ZM0,2.556A2.558,2.558,0,0,1,2.556,0H20.444A2.558,2.558,0,0,1,23,2.556V15.333a2.558,2.558,0,0,1-2.556,2.556H2.556A2.558,2.558,0,0,1,0,15.333ZM3.833,5.111A1.278,1.278,0,1,1,5.111,6.389,1.278,1.278,0,0,1,3.833,5.111m4.153,0a.955.955,0,0,1,.958-.958h8.944a.958.958,0,1,1,0,1.917H8.944a.955.955,0,0,1-.958-.958m0,3.833a.955.955,0,0,1,.958-.958h8.944a.958.958,0,1,1,0,1.917H8.944a.955.955,0,0,1-.958-.958m0,3.833a.955.955,0,0,1,.958-.958h8.944a.958.958,0,1,1,0,1.917H8.944a.955.955,0,0,1-.958-.958M5.111,10.222A1.278,1.278,0,1,1,6.389,8.944a1.278,1.278,0,0,1-1.278,1.278M3.833,12.778a1.278,1.278,0,1,1,1.278,1.278,1.278,1.278,0,0,1-1.278-1.278" fill="#25336c"/>
      </g>
    </g>
    <rect id="Rect치ngulo_175" data-name="Rect치ngulo 175" width="37" height="30" transform="translate(38 216)" fill="none"/>
  </g>
</svg>
