<svg xmlns="http://www.w3.org/2000/svg" xmlns:xlink="http://www.w3.org/1999/xlink" width="37" height="30" viewBox="0 0 37 30">
  <defs>
    <clipPath id="clip-path">
      <rect id="Rect치ngulo_172" data-name="Rect치ngulo 172" width="18.451" height="21.065" fill="#25336c"/>
    </clipPath>
  </defs>
  <g id="Grupo_231" data-name="Grupo 231" transform="translate(-38 -615)">
    <g id="Grupo_216" data-name="Grupo 216" transform="translate(47 619)">
      <g id="Grupo_215" data-name="Grupo 215" clip-path="url(#clip-path)">
        <path id="Trazado_291" data-name="Trazado 291" d="M29.78,3.334v.88c0,3.031,0,6.063,0,9.094,0,.7-.36,1.121-.926,1.143-.543.021-.946-.409-1-1.083-.015-.174-.006-.351-.006-.527q0-4.317,0-8.633V3.519l-.175-.086c-.713.732-1.423,1.466-2.139,2.2-.416.423-.827.852-1.264,1.252a.934.934,0,0,1-1.363.05.962.962,0,0,1,.009-1.414c.272-.315.582-.6.877-.893Q25.811,2.6,27.84.57c.76-.756,1.2-.759,1.945-.013C31.4,2.17,33.024,3.78,34.628,5.407c.671.681.5,1.614-.328,1.727a1.556,1.556,0,0,1-1.084-.429c-.969-.892-1.878-1.849-2.811-2.78-.154-.153-.315-.3-.625-.592" transform="translate(-19.615 0)" fill="#25336c"/>
        <path id="Trazado_292" data-name="Trazado 292" d="M9.209,107.893c-1.758,0-3.516.006-5.274,0a3.649,3.649,0,0,1-3.93-3.9c-.006-.945-.01-1.89,0-2.835.01-.7.372-1.12.936-1.134a1.007,1.007,0,0,1,.988,1.1c.031.988,0,1.978.014,2.966a1.677,1.677,0,0,0,1.887,1.856q5.373.006,10.746,0a1.72,1.72,0,0,0,1.91-1.917c.008-.945-.006-1.89.005-2.835.009-.733.391-1.178.971-1.168a1.023,1.023,0,0,1,.956,1.131c.024,1.032.055,2.069-.007,3.1a3.64,3.64,0,0,1-3.931,3.64c-1.758.007-3.516,0-5.274,0" transform="translate(0 -86.83)" fill="#25336c"/>
      </g>
    </g>
    <rect id="Rect치ngulo_176" data-name="Rect치ngulo 176" width="37" height="30" transform="translate(38 615)" fill="none"/>
  </g>
</svg>
