<svg xmlns="http://www.w3.org/2000/svg" xmlns:xlink="http://www.w3.org/1999/xlink" width="37" height="30" viewBox="0 0 37 30">
  <defs>
    <clipPath id="clip-path">
      <rect id="Rect치ngulo_168" data-name="Rect치ngulo 168" width="20.994" height="21.004" fill="#25336c"/>
    </clipPath>
  </defs>
  <g id="Grupo_226" data-name="Grupo 226" transform="translate(-38 -416)">
    <g id="Grupo_208" data-name="Grupo 208" transform="translate(46 420)">
      <g id="Grupo_207" data-name="Grupo 207" clip-path="url(#clip-path)">
        <path id="Trazado_285" data-name="Trazado 285" d="M0,10.5C0,8.124,0,5.746,0,3.368A3.042,3.042,0,0,1,3.347,0q7.134-.01,14.269,0a3.074,3.074,0,0,1,3.368,3.362q.02,7.134,0,14.269A3.075,3.075,0,0,1,17.617,21q-7.135.01-14.269,0A3.042,3.042,0,0,1,0,17.637C0,15.259,0,12.88,0,10.5M10.52,2.222q-3.566,0-7.131,0c-1,0-1.177.176-1.177,1.187q-.006,7.094,0,14.187c0,1.009.177,1.182,1.181,1.183q7.094,0,14.187,0c.972,0,1.2-.219,1.2-1.186q.007-7.094,0-14.187c0-.966-.226-1.182-1.2-1.183q-3.528,0-7.056,0" transform="translate(0 0)" fill="#25336c"/>
        <path id="Trazado_286" data-name="Trazado 286" d="M37.18,38.824c.257-.3.541-.613.8-.945a1.037,1.037,0,0,1,1.33-.355c.672.271,1.34.553,2.008.835a.913.913,0,0,1,.594,1.149c-.161.68-.339,1.358-.541,2.027a.956.956,0,0,1-1.041.68,10.58,10.58,0,0,1-10.292-10.28.989.989,0,0,1,.785-1.107c.6-.16,1.209-.315,1.808-.492a.955.955,0,0,1,1.266.621c.28.641.526,1.3.806,1.939a1.088,1.088,0,0,1-.4,1.445c-.3.225-.582.468-.86.694a6.846,6.846,0,0,0,3.743,3.789" transform="translate(-25.524 -25.728)" fill="#25336c"/>
      </g>
    </g>
    <rect id="Rect치ngulo_176" data-name="Rect치ngulo 176" width="37" height="30" transform="translate(38 416)" fill="none"/>
  </g>
</svg>
