<svg xmlns="http://www.w3.org/2000/svg" width="37" height="30" viewBox="0 0 37 30">
  <g id="Grupo_289" data-name="Grupo 289" transform="translate(-6768 234)">
    <rect id="Rectángulo_175" data-name="Rectángulo 175" width="37" height="30" transform="translate(6768 -234)" fill="none"/>
    <g id="Grupo_288" data-name="Grupo 288" transform="translate(-51.359 -1.622)">
      <g id="Grupo_287" data-name="Grupo 287" transform="translate(6830.361 -222.375)">
        <path id="Trazado_317" data-name="Trazado 317" d="M17.7,19.768a.515.515,0,1,0,0-1.029,1.5,1.5,0,1,1,0-3.009.515.515,0,1,0,0-1.029,2.524,2.524,0,0,0-2.523,2.494A2.566,2.566,0,0,0,17.7,19.768" transform="translate(-15.174 -14.7)" fill="#25336c"/>
        <path id="Trazado_318" data-name="Trazado 318" d="M19.813,18.663a.512.512,0,0,0-.721,0,.5.5,0,0,0,0,.713l.521.515a.512.512,0,0,0,.721,0l1.522-1.5a.5.5,0,0,0,0-.713.512.512,0,0,0-.721,0l-1.161,1.148Z" transform="translate(-17.449 -16.406)" fill="#25336c"/>
        <path id="Trazado_319" data-name="Trazado 319" d="M28.34,19.729h2a.515.515,0,1,0,0-1.029h-2a.515.515,0,1,0,0,1.029" transform="translate(-22.812 -17.116)" fill="#25336c"/>
        <path id="Trazado_320" data-name="Trazado 320" d="M37.141,19.729h.521a.515.515,0,1,0,0-1.029h-.521a.527.527,0,0,0-.521.515.557.557,0,0,0,.521.515" transform="translate(-28.128 -17.116)" fill="#25336c"/>
        <path id="Trazado_321" data-name="Trazado 321" d="M28.34,23.429h6.008a.515.515,0,1,0,0-1.029H28.34a.515.515,0,1,0,0,1.029" transform="translate(-22.812 -19.351)" fill="#25336c"/>
      </g>
      <path id="Trazado_330" data-name="Trazado 330" d="M26.137,14.372V4.83A1.869,1.869,0,0,0,24.254,2.97h-1.2a2,2,0,0,0-1.923-1.5H20.049A1.987,1.987,0,0,0,16.2,1.5H15.122a1.969,1.969,0,0,0-1.922,1.5H12A1.869,1.869,0,0,0,10.116,4.87V21.46A1.87,1.87,0,0,0,12,23.321H24.254a2.044,2.044,0,0,0,.52-.08A4.491,4.491,0,0,0,30.1,18.846a4.424,4.424,0,0,0-3.965-4.474M15.122,2.494h1.522a.527.527,0,0,0,.521-.515,1,1,0,0,1,2,0,.528.528,0,0,0,.521.515H21.21a.99.99,0,1,1,0,1.98H15.2a.986.986,0,0,1-1-.99.921.921,0,0,1,.921-.99M12,22.291a.884.884,0,0,1-.881-.871V4.83A.884.884,0,0,1,12,3.959h1.2a1.965,1.965,0,0,0,1.842,1.465H21.29a.363.363,0,0,0,.2-.04,1.963,1.963,0,0,0,1.6-1.465h1.2a.884.884,0,0,1,.881.871v9.542a4.476,4.476,0,0,0-4,4.435,4.37,4.37,0,0,0,1.682,3.444H12Zm13.658,0a3.484,3.484,0,1,1,3.525-3.484,3.509,3.509,0,0,1-3.525,3.484" transform="translate(6818.243 -229.378)" fill="#25336c"/>
      <path id="Trazado_331" data-name="Trazado 331" d="M24.483,43.8h-7.4c-.375,0-.7.238-.7.515s.321.515.7.515h7.4c.375,0,.7-.238.7-.515a.682.682,0,0,0-.7-.515" transform="translate(6814.454 -259.512)" fill="#25336c"/>
      <path id="Trazado_332" data-name="Trazado 332" d="M24.483,47.5h-7.4c-.375,0-.7.238-.7.515s.321.515.7.515h7.4c.375,0,.7-.238.7-.515a.726.726,0,0,0-.7-.515" transform="translate(6814.454 -261.747)" fill="#25336c"/>
      <path id="Trazado_333" data-name="Trazado 333" d="M47.351,44.465l-1.8.594-1.8-1.188a.5.5,0,0,0-.681.119.484.484,0,0,0,.12.673l2,1.307a.433.433,0,0,0,.44.04l2-.673a.486.486,0,0,0,.321-.633.5.5,0,0,0-.6-.238" transform="translate(6798.391 -255.828)" fill="#25336c"/>
      <path id="Trazado_334" data-name="Trazado 334" d="M22.88,43.8H16.947a.517.517,0,1,0,0,1.03H22.88a.549.549,0,0,0,.559-.515.578.578,0,0,0-.559-.515" transform="translate(6814.454 -256.169)" fill="#25336c"/>
      <path id="Trazado_335" data-name="Trazado 335" d="M22.88,47.5H16.947a.516.516,0,1,0,0,1.029H22.88a.548.548,0,0,0,.559-.515.616.616,0,0,0-.559-.515" transform="translate(6814.454 -258.404)" fill="#25336c"/>
    </g>
  </g>
</svg>
