<svg xmlns="http://www.w3.org/2000/svg" xmlns:xlink="http://www.w3.org/1999/xlink" width="37" height="30" viewBox="0 0 37 30">
  <defs>
    <clipPath id="clip-path">
      <rect id="Rect치ngulo_173" data-name="Rect치ngulo 173" width="21.402" height="18.757" fill="#25336c"/>
    </clipPath>
  </defs>
  <g id="Grupo_232" data-name="Grupo 232" transform="translate(-38 -660)">
    <g id="Grupo_218" data-name="Grupo 218" transform="translate(46 666)">
      <g id="Grupo_217" data-name="Grupo 217" clip-path="url(#clip-path)">
        <path id="Trazado_293" data-name="Trazado 293" d="M2.639,1.313C2.749.039,2.759.03,4.011.03h1.2c1.327,0,1.327,0,1.522,1.463a7.72,7.72,0,0,0,1.948-.481,7.981,7.981,0,0,1,4.356-1C14.822.095,16.61.024,18.4.031a2.73,2.73,0,0,1,2.993,2.937q.027,6.425,0,12.851a2.728,2.728,0,0,1-3,2.934q-7.7.008-15.394,0a2.713,2.713,0,0,1-3-2.982Q-.007,10.249,0,4.727C0,2.589.544,1.881,2.639,1.313M1.97,8.746c0,2.344,0,4.639,0,6.934,0,.948.147,1.093,1.083,1.094q7.633,0,15.267,0c.906,0,1.1-.191,1.1-1.092q.006-3.181,0-6.361c0-.192-.028-.384-.043-.574H15.925c.62,4.607-2.621,6.714-5.337,6.635-3.359-.1-5.758-2.879-5.117-6.636Zm.009-2.019c1.367,0,2.636-.016,3.9.009a1.288,1.288,0,0,0,1.04-.44A5.205,5.205,0,0,1,13.97,5.9a3.207,3.207,0,0,0,2.509.832c.8-.043,1.606-.005,2.408-.012a5.039,5.039,0,0,0,.538-.063c0-1.252.007-2.455,0-3.657-.006-.78-.221-.991-1-.994-1.874-.005-3.749.048-5.621-.02a5.354,5.354,0,0,0-3.118.749,4.543,4.543,0,0,1-2.621.621c-1.4-.045-2.81-.008-4.216-.013-.484,0-.855.146-.866.7-.018.865,0,1.731,0,2.684m5.362,3.359a3.383,3.383,0,0,0,3.389,3.336,3.438,3.438,0,0,0,3.324-3.353A3.435,3.435,0,0,0,10.679,6.7a3.385,3.385,0,0,0-3.338,3.388" transform="translate(0.001 0)" fill="#25336c"/>
      </g>
    </g>
    <rect id="Rect치ngulo_176" data-name="Rect치ngulo 176" width="37" height="30" transform="translate(38 660)" fill="none"/>
  </g>
</svg>
