<svg xmlns="http://www.w3.org/2000/svg" xmlns:xlink="http://www.w3.org/1999/xlink" width="37" height="30" viewBox="0 0 37 30">
  <defs>
    <clipPath id="clip-path">
      <rect id="Rect치ngulo_166" data-name="Rect치ngulo 166" width="18" height="18" fill="#25336c"/>
    </clipPath>
  </defs>
  <g id="Grupo_222" data-name="Grupo 222" transform="translate(-38 -285)">
    <g id="Grupo_202" data-name="Grupo 202" transform="translate(48 291)">
      <g id="Grupo_201" data-name="Grupo 201" clip-path="url(#clip-path)">
        <path id="Trazado_275" data-name="Trazado 275" d="M16.313,9A7.313,7.313,0,1,0,9,16.313,7.312,7.312,0,0,0,16.313,9M0,9a9,9,0,1,1,9,9A9,9,0,0,1,0,9M9,5.625A3.375,3.375,0,1,1,5.625,9,3.375,3.375,0,0,1,9,5.625" fill="#25336c"/>
      </g>
    </g>
    <rect id="Rect치ngulo_176" data-name="Rect치ngulo 176" width="37" height="30" transform="translate(38 285)" fill="none"/>
  </g>
</svg>
