<svg xmlns="http://www.w3.org/2000/svg" xmlns:xlink="http://www.w3.org/1999/xlink" width="451" height="162" viewBox="0 0 451 162">
  <defs>
    <clipPath id="clip-path">
      <rect id="Rect치ngulo_161" data-name="Rect치ngulo 161" width="451" height="162" rx="6" transform="translate(4373 4179)" fill="#fff" stroke="#a2a2a2" stroke-width="1" stroke-dasharray="1"/>
    </clipPath>
    <clipPath id="clip-path-2">
      <rect id="Rect치ngulo_159" data-name="Rect치ngulo 159" width="426.217" height="927.611" fill="none"/>
    </clipPath>
  </defs>
  <g id="Enmascarar_grupo_10" data-name="Enmascarar grupo 10" transform="translate(-4373 -4179)" clip-path="url(#clip-path)">
    <g id="Grupo_185" data-name="Grupo 185" transform="translate(4385 3862.594)" opacity="0.592">
      <g id="Grupo_183" data-name="Grupo 183" clip-path="url(#clip-path-2)">
        <path id="Trazado_243" data-name="Trazado 243" d="M101.554,21.752c5.931-1.789,8.423,1.1,9.6,2.944a7.965,7.965,0,0,1,.651,6.35,65.566,65.566,0,0,1-2.98,7.987c-2.7,6.393.031,11.658-7.315,11.658-2.308.163-8.054,1.756-7.79-1.97.351-5.022,6.422-24.923,7.832-26.968" transform="translate(148.27 33.525)" fill="#fcc992"/>
        <path id="Trazado_244" data-name="Trazado 244" d="M97.732,53.339a5.061,5.061,0,0,1-3.538-1.079,3.339,3.339,0,0,1-.989-2.809c.354-5.071,6.453-25.3,8.067-27.634l.263-.39.452-.134c4.935-1.492,8.676-.31,11.124,3.507a9.285,9.285,0,0,1,.816,7.424,67.72,67.72,0,0,1-3.042,8.157,22,22,0,0,0-1.353,5.423c-.535,3.47-1.09,7.057-7.2,7.057-.284.021-.754.09-1.278.165a24.075,24.075,0,0,1-3.326.315m5.539-29.62c-1.575,3.251-7.054,21.2-7.388,25.92-.034.488.1.615.142.656.687.635,3.266.269,4.653.07.6-.083,1.136-.158,1.562-.188,3.9,0,4.1-1.307,4.638-4.785a24.652,24.652,0,0,1,1.531-6.055,64.977,64.977,0,0,0,2.926-7.821,6.607,6.607,0,0,0-.485-5.268c-1.162-1.815-3.06-3.721-7.579-2.528" transform="translate(147.447 32.698)" fill="#e8a96b"/>
        <path id="Trazado_245" data-name="Trazado 245" d="M74.815,21.752c-5.931-1.789-8.423,1.1-9.606,2.944a7.975,7.975,0,0,0-.648,6.35,65.572,65.572,0,0,0,2.98,7.987c2.7,6.393-.031,11.658,7.315,11.658,2.308.163,8.054,1.756,7.79-1.97C82.3,43.7,76.225,23.8,74.815,21.752" transform="translate(101.575 33.525)" fill="#fcc992"/>
        <path id="Trazado_246" data-name="Trazado 246" d="M80.279,53.339a24,24,0,0,1-3.323-.315c-.524-.075-1-.145-1.374-.17-6.014,0-6.569-3.584-7.1-7.052a22.119,22.119,0,0,0-1.353-5.423,67.069,67.069,0,0,1-3.039-8.157A9.283,9.283,0,0,1,64.9,24.8c2.443-3.816,6.187-5,11.124-3.507l.449.134.269.387c1.611,2.339,7.71,22.566,8.064,27.637a3.332,3.332,0,0,1-.992,2.809,5.05,5.05,0,0,1-3.535,1.079M72.164,23.35a5.557,5.557,0,0,0-5,2.9,6.627,6.627,0,0,0-.485,5.268A65.332,65.332,0,0,0,69.6,39.336a24.553,24.553,0,0,1,1.534,6.055c.537,3.481.738,4.782,4.545,4.782.522.034,1.059.108,1.655.191,1.387.2,3.969.563,4.65-.07.044-.041.181-.168.145-.656-.331-4.715-5.81-22.669-7.388-25.92a10.068,10.068,0,0,0-2.577-.369" transform="translate(100.753 32.698)" fill="#e8a96b"/>
        <path id="Trazado_247" data-name="Trazado 247" d="M401.2,357.675c2.066.271,5.485,1.454,11.075,4.9,5.407,3.336,9.466,3.179,11.393.514,2.683-3.711-9.471-10.2-15.15-14.618-7.067-5.492-19.278-8.34-25.331-13.216a7.792,7.792,0,0,1-1.245-1.387,19.144,19.144,0,0,1-2.569-4.9c-3.713-10.228-13.466-43.876-19.73-67.678-6.714-25.514-12.885-38.4-16.665-44.919-2.022-11.054-2.771-23.25-10.75-49.634,1.121-47-11.119-61.936-22.054-69.236-18.308-12.224-34.054-8.085-69.419-29.287L236.9,34.928H188l-3.86,33.289c-35.368,21.2-51.114,17.063-69.421,29.287-10.935,7.3-23.172,22.24-22.054,69.236-7.976,26.385-8.728,38.58-10.75,49.634-3.778,6.517-9.952,19.4-16.665,44.919-1.727,6.561-15.372,57.161-20.885,70.669a10.263,10.263,0,0,1-2.982,4.183c-6.053,4.875-18.264,7.723-25.331,13.216C10.372,353.776-1.782,360.268.9,363.978c1.926,2.665,5.985,2.822,11.392-.514,5.59-3.45,9.009-4.632,11.075-4.9a2.237,2.237,0,0,1,2.283,3.158c-1.715,3.827-6.388,10.207-11.94,20.606-1.456,2.727-9.619,13.7-12.472,20.626-1.7,4.129,3.649,6.9,6.422,3.956,4.147-4.413,10.373-12.42,13.327-17.858.948-1.743,5.5-9.417,6.835-11.586-.8,2.678-5.113,11.364-6.3,14.334-1.975,4.94-8.038,18.617-10.06,24.045-1.3,3.5,4.663,6.45,7.235,3.024A112.686,112.686,0,0,0,32.018,394.52s3.835-8.575,5.859-13.755c-1.159,5.523-2.35,7.907-3.569,13.647,0,0-6.166,15.852-6.819,20.719-.532,3.971,4.878,5.862,7.093,2.52,2.9-4.374,8.56-18.62,9.335-20.675,3.272-8.681,5.554-15.294,5.554-15.294s-1.041,6.742-1.815,10.716c-.418,2.146-3.94,11.444-4.126,17.662-.1,3.189,3.509,3.881,5.3,2.667,4.227-2.866,8.255-19.046,8.255-19.046,1.7-7.055,5.725-21.275,7.338-25.383,4.013-10.215,2.159-16.6,1.983-22.594a14.9,14.9,0,0,1,1.054-4.219c1.854-4.712,7.553-15.15,27-47.184,18.341-30.211,22.483-54.38,22.483-54.38,9.4-13.652,14.365-28.763,19.3-39.817,10.365,34.508,9.438,50.807,7.238,84.039-4.844,73.145-25.607,98.133-22.178,190.311,1.585,42.681,14.92,85.4,14.532,100.746-.4,15.935-1.314,33.467-2.407,44.266-1.815,17.91-5.009,35.83-4.18,53.9.811,17.657,7.932,34.286,13.174,51.034,4.266,13.642,6.951,27.794,9.1,41.906,4.9,32.125,8.444,41.395-18.814,80.331-2.923,4.181-8.467,11.212-6.776,16.782,1.56,5.131,8.6,5.877,12.968,6.189,32.662,2.345,46.179,2.3,49.386-4.622a13.158,13.158,0,0,0,.292-9.678c-7.6-22.594-2.887-45.862-5.691-68.982-2.115-17.435-3.081-20.376,1.518-45.537,2.9-15.852,5.978-31.7,7.47-47.77,4.439-47.84-8.862-58.819-8.2-87.486.677-29.359,27.738-155.635,24.525-210.624a3.121,3.121,0,0,1,3.078-3.285c.785-.01,1.619-.01,2.4,0a3.1,3.1,0,0,1,3.06,3.264C213.165,472.212,240.531,576,241.212,605.529c.661,28.667-12.642,39.646-8.2,87.486,1.49,16.066,4.57,31.918,7.468,47.77,4.6,25.161,3.633,28.1,1.518,45.537-2.8,23.121,1.913,46.388-5.691,68.982a13.171,13.171,0,0,0,.294,9.678c3.2,6.92,16.725,6.967,49.384,4.622,4.369-.312,11.411-1.059,12.968-6.189,1.691-5.57-3.85-12.6-6.776-16.782-27.257-38.936-23.709-48.206-18.811-80.331,2.151-14.112,4.834-28.264,9.1-41.906,5.239-16.748,12.361-33.377,13.172-51.034.829-18.068-2.365-35.988-4.178-53.9-1.095-10.8-2-28.331-2.407-44.266-.39-15.341,12.944-58.065,14.532-100.746C307.024,382,292.7,357.066,281.577,284.311c-4.212-27.562-3.783-52.1,4.32-86.954,4.94,11.054,15.581,31.776,22.95,43.122,0,0,3.243,23.611,21.587,53.823,19.237,31.688,25.016,42.236,26.932,47.021a13.192,13.192,0,0,1,.7,5.3c-.393,5.5-1.534,11.589,2.079,20.784,1.614,4.111,5.642,18.331,7.338,25.385,0,0,4.028,16.18,8.255,19.046,1.792,1.214,5.4.522,5.3-2.667-.186-6.218-3.708-15.516-4.126-17.662-.775-3.977-1.57-9.11-1.57-9.11s2.024,4.488,5.309,13.688c.739,2.068,6.435,16.3,9.335,20.675,2.215,3.341,7.625,1.451,7.093-2.523-.653-4.865-6.819-20.719-6.819-20.719-1.219-5.738-3.171-9.425-4.33-14.948,2.024,5.18,7.165,15.059,7.165,15.059,4.439,11.346,10.1,20.781,12.777,24.345,2.572,3.427,8.537.475,7.235-3.024-2.022-5.428-8.085-19.105-10.06-24.048-1.051-2.631-7.124-15.617-7.215-15.919,1.338,2.169,6.8,11.431,7.749,13.174,2.954,5.438,9.18,13.443,13.327,17.856,2.773,2.951,8.121.176,6.422-3.953-2.853-6.923-11.016-18.863-12.472-21.589-5.552-10.4-10.225-15.818-11.94-19.645a2.235,2.235,0,0,1,2.283-3.155" transform="translate(0.822 55.262)" fill="#fcc992"/>
        <path id="Trazado_248" data-name="Trazado 248" d="M168.161,873.172c-7.393,0-16.792-.56-28.525-1.4-3.669-.263-12.258-.883-14.153-7.137-1.738-5.722,3.008-12.392,6.153-16.8l.806-1.139c25.334-36.192,23.725-46.456,19.431-73.881l-.85-5.479c-2.621-17.2-5.415-30.067-9.056-41.7-1.167-3.742-2.435-7.481-3.7-11.222-4.372-12.914-8.89-26.263-9.533-40.155-.622-13.577,1.028-27.231,2.623-40.437.553-4.555,1.1-9.1,1.562-13.657,1.038-10.243,1.981-27.58,2.4-44.163.158-6.2-2-17.094-4.738-30.883-3.946-19.9-8.857-44.658-9.792-69.778-2.045-55.044,4.372-85.557,11.163-117.86,4.457-21.184,9.063-43.089,11.018-72.59,2.081-31.409,3.158-47.718-6.14-80.016-.728,1.722-1.464,3.522-2.228,5.379-3.982,9.7-8.488,20.683-15.565,31.03-.555,2.889-5.43,26.261-22.6,54.553-21.014,34.609-25.347,43.029-26.9,46.975a12.976,12.976,0,0,0-.927,3.574l-.046.343c.046,1,.158,2.254.269,3.548.452,5.146.955,10.979-2.332,19.348-1.562,3.979-5.554,18.018-7.284,25.207-.426,1.717-4.284,16.774-8.805,19.844a5.177,5.177,0,0,1-5.2.181,4.252,4.252,0,0,1-2.2-4,42.22,42.22,0,0,1,1.552-8.955c-2.027,5.02-5.748,13.879-8.036,17.331a5.16,5.16,0,0,1-6.249,1.965,5,5,0,0,1-3.292-5.407c.318-2.383,1.859-7.173,3.408-11.581a110.715,110.715,0,0,1-9.8,16.3,5.458,5.458,0,0,1-7.119,1.291c-2.249-1.232-3.235-3.478-2.445-5.59,1.211-3.261,3.871-9.461,6.21-14.935.757-1.771,1.487-3.473,2.13-4.986a117.707,117.707,0,0,1-9.905,12.374,5.353,5.353,0,0,1-6.783.772,4.852,4.852,0,0,1-1.859-6.158c2.012-4.88,6.592-11.723,9.624-16.252,1.332-1.988,2.476-3.7,2.9-4.5,2.993-5.606,5.7-10.008,7.886-13.546a73.586,73.586,0,0,0,4.015-6.977.941.941,0,0,0-.108-.943.819.819,0,0,0-.772-.336c-1.684.222-4.88,1.221-10.546,4.718-5.756,3.553-10.688,3.612-13.187.158a3.31,3.31,0,0,1-.581-2.569c.54-3.07,4.754-6.135,11.121-10.455,1.82-1.234,3.535-2.4,4.873-3.439,3.739-2.908,8.759-5.053,13.613-7.132,4.563-1.952,8.875-3.8,11.7-6.071a8.862,8.862,0,0,0,2.582-3.646c5.283-12.944,18.455-61.481,20.828-70.5,5.172-19.64,10.781-34.795,16.683-45.046.431-2.378.808-4.816,1.211-7.442a269.912,269.912,0,0,1,9.471-41.906c-1.1-48.044,11.527-62.736,22.656-70.168,8.278-5.528,16.079-7.79,25.112-10.409,10.943-3.171,24.543-7.114,43.8-18.579l3.78-32.628a1.341,1.341,0,0,1,1.332-1.188h48.9a1.336,1.336,0,0,1,1.33,1.188l3.785,32.628c19.255,11.465,32.855,15.408,43.8,18.579,9.03,2.618,16.828,4.88,25.109,10.409,11.134,7.431,23.761,22.124,22.658,70.168a270.8,270.8,0,0,1,9.471,41.909c.4,2.623.78,5.061,1.208,7.442,5.905,10.256,11.519,25.409,16.683,45.043,6.546,24.871,16.118,57.706,19.694,67.565a17.989,17.989,0,0,0,2.383,4.563,6.712,6.712,0,0,0,1.012,1.136c2.822,2.272,7.134,4.119,11.7,6.071,4.854,2.076,9.874,4.224,13.613,7.129,1.335,1.038,3.049,2.205,4.87,3.437,6.37,4.325,10.584,7.39,11.124,10.46a3.317,3.317,0,0,1-.578,2.569c-2.5,3.455-7.429,3.4-13.19-.16-5.665-3.5-8.859-4.493-10.54-4.712a.777.777,0,0,0-.78.333.946.946,0,0,0-.1.943,47.764,47.764,0,0,0,3.674,6.037,152.274,152.274,0,0,1,8.224,13.523c.4.762,1.407,2.347,2.673,4.354,3.1,4.927,7.8,12.366,9.851,17.357a4.846,4.846,0,0,1-1.859,6.158,5.335,5.335,0,0,1-6.778-.772,116.853,116.853,0,0,1-9.908-12.374c.651,1.529,1.387,3.248,2.154,5.038,2.332,5.454,4.976,11.633,6.189,14.881.785,2.115-.2,4.361-2.448,5.593a5.464,5.464,0,0,1-7.119-1.294,116.232,116.232,0,0,1-11.831-21.889c1.864,4.981,4.971,13.665,5.443,17.169a5,5,0,0,1-3.295,5.412,5.18,5.18,0,0,1-6.249-1.97c-2.216-3.339-5.911-12.015-8-17.174a41.263,41.263,0,0,1,1.508,8.8,4.237,4.237,0,0,1-2.2,4,5.176,5.176,0,0,1-5.2-.183c-4.524-3.062-8.377-18.124-8.805-19.831-1.73-7.2-5.725-21.243-7.284-25.217-3.29-8.369-2.781-14.2-2.332-19.351.062-.687.116-1.358.168-2.022a11.7,11.7,0,0,0-.617-4.723c-1.6-3.987-5.96-12.431-26.829-46.807-17.164-28.264-21.264-51.145-21.726-54.032-6.9-10.677-16.04-28.365-21.236-39.45-6.812,30.785-7.752,54.262-3.424,82.588,3.238,21.181,6.685,37.989,10.016,54.241,8.074,39.391,14.452,70.5,12.01,136.157-.93,25.122-5.841,49.882-9.789,69.78-2.737,13.786-4.9,24.68-4.741,30.88.418,16.593,1.363,33.93,2.4,44.163.462,4.552,1.015,9.1,1.56,13.66,1.6,13.205,3.248,26.857,2.624,40.434-.638,13.892-5.157,27.242-9.526,40.153-1.273,3.744-2.533,7.483-3.708,11.225-4.663,14.907-7.287,30.118-9.053,41.7l-.852,5.479c-4.289,27.425-5.9,37.689,19.436,73.881l.806,1.134c3.14,4.416,7.9,11.088,6.156,16.81-1.9,6.254-10.491,6.874-14.158,7.137-32.432,2.327-47.029,2.518-50.7-5.4a14.409,14.409,0,0,1-.349-10.672c4.65-13.82,4.625-28.269,4.594-42.242-.016-8.666-.036-17.628,1.038-26.475l.436-3.558c1.8-14.525,2.288-18.426-1.942-41.573l-.865-4.723c-2.59-14.078-5.27-28.636-6.618-43.166-2.654-28.582,1.007-44.225,4.235-58.024,2.172-9.286,4.222-18.06,3.961-29.558-.232-9.915-3.5-28.293-7.638-51.561-8.1-45.549-19.2-107.934-16.831-159.175a1.761,1.761,0,0,0-1.74-1.857c-.764-.015-1.588-.013-2.358,0a1.8,1.8,0,0,0-1.294.576,1.741,1.741,0,0,0-.465,1.291c2.042,34.986-7.938,97.593-15.958,147.893-4.462,28-8.32,52.17-8.565,62.834-.266,11.5,1.792,20.273,3.961,29.558,3.228,13.8,6.889,29.442,4.235,58.024-1.345,14.509-4.02,29.044-6.6,43.1l-.881,4.787c-4.232,23.144-3.744,27.046-1.947,41.57l.439,3.561c1.074,8.846,1.059,17.812,1.038,26.478-.026,13.972-.054,28.419,4.591,42.239a14.385,14.385,0,0,1-.343,10.672c-2.345,5.053-9.136,6.8-22.176,6.8M137.072,199.584a1.371,1.371,0,0,1,1.288.958c10.558,35.156,9.466,51.651,7.287,84.512-1.962,29.692-6.59,51.692-11.067,72.967-6.76,32.138-13.143,62.493-11.108,117.207.927,24.908,5.815,49.552,9.743,69.354,2.768,13.957,4.955,24.975,4.79,31.474-.418,16.647-1.366,34.061-2.412,44.367-.46,4.568-1.015,9.138-1.567,13.709-1.58,13.094-3.217,26.638-2.6,39.993.617,13.512,5.074,26.679,9.386,39.414,1.273,3.765,2.546,7.519,3.723,11.282,3.682,11.772,6.507,24.758,9.149,42.1l.847,5.466c4.418,28.2,6.068,38.758-19.888,75.835l-.816,1.154c-2.84,3.987-7.129,10.011-5.774,14.468,1.2,3.956,6.631,4.87,11.78,5.242,31.585,2.262,45.247,2.234,48.072-3.85a11.729,11.729,0,0,0,.235-8.684c-4.79-14.241-4.762-28.913-4.733-43.1.021-8.586.039-17.463-1.017-26.149l-.436-3.556c-1.792-14.465-2.334-18.834,1.97-42.384l.875-4.785c2.574-14,5.237-28.476,6.577-42.866,2.611-28.148-.994-43.564-4.18-57.164-2.213-9.459-4.3-18.393-4.028-30.229.25-10.848,4.119-35.107,8.6-63.2,8-50.177,17.951-112.618,15.927-147.318a4.371,4.371,0,0,1,1.18-3.272,4.484,4.484,0,0,1,3.215-1.433c.8-.016,1.653-.018,2.45,0a4.435,4.435,0,0,1,4.374,4.663c-2.36,50.943,8.707,113.156,16.789,158.584,4.162,23.379,7.444,41.846,7.679,51.969.271,11.837-1.818,20.771-4.033,30.229-3.179,13.6-6.786,29.016-4.173,57.164,1.335,14.408,4,28.91,6.587,42.928l.868,4.723c4.3,23.552,3.762,27.921,1.965,42.389l-.434,3.551c-1.056,8.684-1.041,17.561-1.02,26.147.028,14.189.057,28.863-4.736,43.1a11.753,11.753,0,0,0,.24,8.684c2.817,6.084,16.474,6.12,48.07,3.85,5.149-.372,10.579-1.286,11.777-5.242,1.356-4.459-2.933-10.484-5.776-14.471l-.813-1.152c-25.953-37.077-24.3-47.63-19.888-75.835l.852-5.466c1.779-11.684,4.426-27.025,9.146-42.1,1.175-3.762,2.445-7.519,3.718-11.284,4.315-12.735,8.772-25.9,9.394-39.412.612-13.355-1.023-26.9-2.605-39.99-.555-4.573-1.108-9.141-1.57-13.711-1.043-10.3-1.991-27.709-2.409-44.367-.168-6.5,2.017-17.517,4.787-31.471,3.93-19.805,8.818-44.447,9.745-69.357,2.43-65.334-3.92-96.307-11.961-135.517-3.339-16.286-6.791-33.127-10.034-54.375-4.568-29.865-3.349-54.388,4.335-87.46a1.343,1.343,0,0,1,2.533-.245c5.262,11.775,15.942,32.3,22.85,42.941a1.314,1.314,0,0,1,.2.547c.034.235,3.445,23.72,21.406,53.309,19.808,32.626,25.132,42.471,27.035,47.22a14.428,14.428,0,0,1,.8,5.9c-.049.679-.108,1.366-.17,2.066-.418,4.852-.9,10.352,2.159,18.134,1.6,4.059,5.647,18.295,7.4,25.558,1.508,6.055,4.937,16.373,7.7,18.251a2.51,2.51,0,0,0,2.394.054,1.572,1.572,0,0,0,.811-1.567c-.132-4.338-2.03-10.486-3.161-14.155-.473-1.529-.813-2.634-.945-3.292-.764-3.953-1.565-9.107-1.575-9.159a1.342,1.342,0,0,1,2.549-.759c.088.186,2.086,4.64,5.353,13.789.852,2.391,6.445,16.244,9.187,20.386a2.524,2.524,0,0,0,3.068.937,2.313,2.313,0,0,0,1.575-2.538c-.622-4.653-6.677-20.254-6.739-20.412a67.415,67.415,0,0,0-2.221-7.648,63.34,63.34,0,0,1-2.172-7.514,1.344,1.344,0,0,1,2.567-.764c1.97,5.053,7.052,14.829,7.106,14.93,4.4,11.227,9.972,20.58,12.66,24.156a2.819,2.819,0,0,0,3.68.55c.289-.158,1.7-1.007,1.219-2.3-1.185-3.189-3.819-9.337-6.14-14.762-1.614-3.77-3.1-7.235-3.9-9.254-.664-1.663-3.463-7.734-5.317-11.749-1.831-3.971-1.89-4.113-1.942-4.284a1.344,1.344,0,0,1,2.432-1.09c1.4,2.275,6.85,11.511,7.785,13.239,2.877,5.286,9.05,13.241,13.123,17.577a2.626,2.626,0,0,0,3.372.356,2.19,2.19,0,0,0,.834-2.877c-1.97-4.782-6.592-12.1-9.644-16.949-1.3-2.053-2.324-3.677-2.771-4.521a150.706,150.706,0,0,0-8.09-13.3,50.527,50.527,0,0,1-3.891-6.424,3.639,3.639,0,0,1,.4-3.646,3.486,3.486,0,0,1,3.279-1.394c2.825.372,6.732,2.084,11.607,5.092,4.431,2.735,8.015,3.062,9.6.873a.619.619,0,0,0,.111-.532c-.385-2.182-5.936-5.949-9.988-8.7-1.854-1.26-3.607-2.448-5.009-3.537-3.468-2.7-8.325-4.774-13.022-6.783-4.741-2.027-9.216-3.943-12.327-6.448a8.915,8.915,0,0,1-1.485-1.635,20.467,20.467,0,0,1-2.75-5.242c-3.6-9.915-13.205-42.864-19.766-67.795-5.141-19.531-10.7-34.531-16.528-44.586a1.415,1.415,0,0,1-.155-.431c-.452-2.476-.842-5.009-1.265-7.746a268.323,268.323,0,0,0-9.453-41.741,1.365,1.365,0,0,1-.052-.421c1.126-47.432-11.708-61.577-21.463-68.086-7.932-5.3-15.545-7.506-24.365-10.063-11.2-3.246-25.143-7.287-45-19.193a1.334,1.334,0,0,1-.646-1l-3.718-32.1H190.019l-3.726,32.1a1.331,1.331,0,0,1-.643,1c-19.857,11.906-33.8,15.947-45,19.193-8.818,2.556-16.435,4.764-24.368,10.063-9.753,6.51-22.589,20.652-21.458,68.086a1.3,1.3,0,0,1-.059.421,268.374,268.374,0,0,0-9.448,41.741c-.421,2.737-.808,5.27-1.265,7.746a1.294,1.294,0,0,1-.158.431c-5.828,10.047-11.387,25.047-16.528,44.586-2.383,9.048-15.6,57.755-20.941,70.834a11.486,11.486,0,0,1-3.383,4.723c-3.112,2.507-7.589,4.421-12.327,6.448-4.7,2.011-9.557,4.09-13.019,6.783-1.407,1.092-3.158,2.28-5.015,3.54-4.051,2.75-9.6,6.517-9.985,8.7a.621.621,0,0,0,.114.532c1.58,2.185,5.167,1.862,9.6-.87,4.875-3.008,8.777-4.72,11.6-5.092a3.477,3.477,0,0,1,3.279,1.392,3.61,3.61,0,0,1,.4,3.643,72.253,72.253,0,0,1-4.178,7.287c-2.161,3.507-4.849,7.87-7.8,13.4-.491.914-1.614,2.6-3.039,4.723C9.7,392.944,5.211,399.652,3.3,404.285a2.191,2.191,0,0,0,.837,2.879,2.611,2.611,0,0,0,3.365-.356c4.077-4.338,10.254-12.294,13.125-17.579.961-1.761,5.523-9.464,6.874-11.648a1.341,1.341,0,0,1,2.427,1.09c-.511,1.712-2.234,5.428-3.9,9.025-1.025,2.213-1.975,4.261-2.44,5.423-.8,2.009-2.277,5.454-3.881,9.2-2.332,5.443-4.971,11.615-6.164,14.814-.48,1.289.93,2.138,1.219,2.3a2.828,2.828,0,0,0,3.682-.55,110.347,110.347,0,0,0,13.143-24.027c.065-.145,3.871-8.666,5.859-13.758a1.342,1.342,0,0,1,2.564.764c-.589,2.812-1.193,4.86-1.782,6.84-.584,1.96-1.183,3.989-1.784,6.812-.124.364-6.177,15.968-6.8,20.619a2.322,2.322,0,0,0,1.575,2.541,2.519,2.519,0,0,0,3.068-.94c2.833-4.268,8.446-18.419,9.2-20.407,3.228-8.562,5.516-15.2,5.541-15.261a1.331,1.331,0,0,1,1.593-.865,1.345,1.345,0,0,1,1,1.508c-.015.067-1.056,6.814-1.826,10.77-.127.656-.467,1.761-.945,3.292-1.134,3.672-3.029,9.815-3.158,14.153a1.581,1.581,0,0,0,.808,1.567,2.527,2.527,0,0,0,2.4-.052c2.765-1.88,6.195-12.2,7.7-18.261,1.746-7.251,5.8-21.484,7.4-25.551,3.052-7.78,2.577-13.28,2.154-18.132-.116-1.348-.23-2.647-.266-3.93l.059-.558a15.6,15.6,0,0,1,1.087-4.193c1.844-4.687,7.16-14.538,27.1-47.388,18-29.651,22.266-53.67,22.31-53.91a1.241,1.241,0,0,1,.217-.535c7.008-10.176,11.5-21.112,15.457-30.761,1.288-3.137,2.51-6.112,3.729-8.841a1.344,1.344,0,0,1,1.224-.8" transform="translate(-0.001 54.439)" fill="#e8a96b"/>
        <path id="Trazado_249" data-name="Trazado 249" d="M146.777,27.923c-.7-5.7-4.878-27.621-38.012-27.4h-2.776C72.855.3,68.677,22.227,67.977,27.923c-3.414,27.753,1.712,39.21,3.22,51.914.289,2.44,1.157,7.318,2.068,12.154A30.227,30.227,0,0,0,89.633,113.56c5.438,2.665,11.692,4.955,17.226,5.082a2.18,2.18,0,0,0,.519.021c.17,0,.349.023.519.018,5.531-.165,11.785-2.456,17.22-5.12a30.219,30.219,0,0,0,16.371-21.569c.911-4.836,1.779-9.714,2.068-12.154,1.508-12.7,6.634-24.161,3.22-51.914" transform="translate(105.73 0.822)" fill="#fcc992"/>
        <path id="Trazado_250" data-name="Trazado 250" d="M108.672,120.845c-.106,0-.212-.005-.32-.01h-.315c-.139.008-.274.01-.4.01a1.217,1.217,0,0,1-.32-.049c-4.9-.178-10.77-1.931-17.455-5.208a31.718,31.718,0,0,1-17.1-22.527c-1.131-6.027-1.831-10.148-2.081-12.245-.367-3.1-.961-6.158-1.588-9.4-1.88-9.693-4.222-21.76-1.629-42.838C68.524,19.919,74.417-.207,106.815,0h2.765c.17,0,.341,0,.509,0,31.866,0,37.777,19.963,38.838,28.582,2.59,21.076.25,33.139-1.632,42.833-.627,3.241-1.219,6.3-1.588,9.4-.256,2.135-.955,6.254-2.084,12.245a31.707,31.707,0,0,1-17.1,22.527c-6.7,3.282-12.57,5.033-17.468,5.208a1.1,1.1,0,0,1-.3.049Zm-.47-2.7.24.008a1.486,1.486,0,0,1,.24-.028c4.568-.1,10.176-1.766,16.663-4.942a29.026,29.026,0,0,0,15.643-20.613c1.1-5.846,1.81-10.019,2.053-12.064.38-3.2.984-6.308,1.622-9.6,1.939-10,4.137-21.344,1.6-42C145.289,21,139.81,2.685,110.074,2.685c-.163,0-.323,0-.485,0h-2.781c-.165,0-.325,0-.485,0C76.573,2.685,71.1,21,70.125,28.91c-2.538,20.657-.338,32,1.6,42,.638,3.285,1.239,6.388,1.622,9.59.24,2.037.93,6.1,2.053,12.064a29.01,29.01,0,0,0,15.64,20.611c6.484,3.179,12.092,4.842,16.665,4.945a1.582,1.582,0,0,1,.248.028l.248-.008" transform="translate(104.914)" fill="#e8a96b"/>
        <path id="Trazado_251" data-name="Trazado 251" d="M117.519,91.818s-.436,1.09-.943,2.776c-.522,1.684-1.131,3.969-1.668,6.267-1.095,4.6-1.8,9.257-1.8,9.257a1.342,1.342,0,0,1-2.654-.4c.015-.093,1.061-4.8,2.481-9.386.7-2.3,1.474-4.57,2.123-6.259s1.162-2.789,1.162-2.789a.705.705,0,0,1,1.3.537" transform="translate(174.723 143.74)" fill="#e8a96b"/>
        <path id="Trazado_252" data-name="Trazado 252" d="M52.076,91.983s.519,1.061,1.167,2.722,1.441,3.876,2.154,6.117c1.438,4.483,2.639,9.022,2.639,9.022a1.344,1.344,0,1,1-2.6.7c-.021-.09-.9-4.661-2.014-9.167-.553-2.254-1.17-4.488-1.7-6.133s-.953-2.719-.953-2.719a.7.7,0,0,1,1.286-.576Z" transform="translate(80.252 144.861)" fill="#e8a96b"/>
        <path id="Trazado_253" data-name="Trazado 253" d="M113.167,90.525c0-3.328-3-6.027-6.7-6.027s-6.7,2.7-6.7,6.027,3,6.027,6.7,6.027,6.7-2.7,6.7-6.027" transform="translate(157.837 133.69)" fill="#e8a96b"/>
        <path id="Trazado_254" data-name="Trazado 254" d="M73.517,90.525c0-3.328-3-6.027-6.7-6.027s-6.7,2.7-6.7,6.027,3,6.027,6.7,6.027,6.7-2.7,6.7-6.027" transform="translate(95.104 133.69)" fill="#e8a96b"/>
      </g>
    </g>
  </g>
</svg>
