<svg id="Grupo_38" data-name="Grupo 38" xmlns="http://www.w3.org/2000/svg" xmlns:xlink="http://www.w3.org/1999/xlink" width="142.336" height="142.396" viewBox="0 0 142.336 142.396">
  <defs>
    <clipPath id="clip-path">
      <rect id="Rectángulo_12" data-name="Rectángulo 12" width="142.336" height="142.396" fill="none"/>
    </clipPath>
  </defs>
  <g id="Grupo_38-2" data-name="Grupo 38" clip-path="url(#clip-path)">
    <path id="Trazado_25" data-name="Trazado 25" d="M146.734,102.559a2.433,2.433,0,0,1-2.433-2.433v-85.4a9.873,9.873,0,0,0-9.862-9.862H38a9.871,9.871,0,0,0-9.857,9.862v69.2a2.433,2.433,0,0,1-4.866,0v-69.2A14.742,14.742,0,0,1,38,0h96.435a14.745,14.745,0,0,1,14.728,14.728v85.4a2.433,2.433,0,0,1-2.433,2.433" transform="translate(-15.729)" fill="#fff"/>
    <path id="Trazado_26" data-name="Trazado 26" d="M100.64,349.258H38a14.74,14.74,0,0,1-14.723-14.723v-1.476a2.433,2.433,0,0,1,4.866,0v1.476A9.868,9.868,0,0,0,38,344.392H100.64a2.433,2.433,0,1,1,0,4.866" transform="translate(-15.729 -223.372)" fill="#fff"/>
    <path id="Trazado_27" data-name="Trazado 27" d="M133.817,85.973a2.433,2.433,0,0,1-2.249-1.5l-9.036-21.815a2.433,2.433,0,0,1,1.316-3.179,76.573,76.573,0,0,1,58.6,0,2.433,2.433,0,0,1,1.317,3.179l-9.036,21.815a2.433,2.433,0,0,1-3.179,1.317,47.777,47.777,0,0,0-36.808,0,2.425,2.425,0,0,1-.93.186m-5.843-22.895,7.18,17.333a52.536,52.536,0,0,1,36,0l7.18-17.333a71.717,71.717,0,0,0-50.354,0" transform="translate(-82.658 -36.245)" fill="#fff"/>
    <path id="Trazado_28" data-name="Trazado 28" d="M74.091,252.06H7.435a2.428,2.428,0,0,1-1.876-.884,9.609,9.609,0,0,1-5.552-8.7V217.058c0-.114-.006-.228-.006-.342a9.594,9.594,0,0,1,9.583-9.583,2.433,2.433,0,0,1,0,4.866,4.723,4.723,0,0,0-4.716,4.578c0,.046,0,.093,0,.141v.238a4.723,4.723,0,0,0,4.712,4.477h64.5a2.433,2.433,0,0,1,2.433,2.432l.006,25.763a2.433,2.433,0,0,1-2.433,2.433m-64.5-4.866H71.657l0-20.9H9.583a9.52,9.52,0,0,1-4.712-1.24v17.416a4.719,4.719,0,0,0,4.719,4.719" transform="translate(0 -139.94)" fill="#fff"/>
    <path id="Trazado_29" data-name="Trazado 29" d="M230.036,113.473a2.435,2.435,0,0,1-2.234-3.394l3.723-8.66A2.433,2.433,0,0,1,236,103.34L232.273,112a2.434,2.434,0,0,1-2.237,1.473" transform="translate(-153.77 -67.523)" fill="#fff"/>
    <path id="Trazado_30" data-name="Trazado 30" d="M187.125,311.629a2.433,2.433,0,0,1-2.433-2.433V297.738a2.433,2.433,0,1,1,4.866,0V309.2a2.433,2.433,0,0,1-2.433,2.433" transform="translate(-124.778 -199.509)" fill="#fff"/>
    <path id="Trazado_31" data-name="Trazado 31" d="M153.858,318.377a2.433,2.433,0,0,1-2.433-2.433v-8.218a2.433,2.433,0,0,1,4.866,0v8.218a2.433,2.433,0,0,1-2.433,2.433" transform="translate(-102.303 -206.257)" fill="#fff"/>
    <path id="Trazado_32" data-name="Trazado 32" d="M120.589,311.629a2.433,2.433,0,0,1-2.433-2.433V297.738a2.433,2.433,0,1,1,4.866,0V309.2a2.433,2.433,0,0,1-2.433,2.433" transform="translate(-79.827 -199.509)" fill="#fff"/>
    <path id="Trazado_33" data-name="Trazado 33" d="M87.322,318.377a2.433,2.433,0,0,1-2.433-2.433v-8.218a2.433,2.433,0,0,1,4.866,0v8.218a2.433,2.433,0,0,1-2.433,2.433" transform="translate(-57.351 -206.257)" fill="#fff"/>
    <path id="Trazado_34" data-name="Trazado 34" d="M54.054,311.629a2.433,2.433,0,0,1-2.433-2.433V297.738a2.433,2.433,0,1,1,4.866,0V309.2a2.433,2.433,0,0,1-2.433,2.433" transform="translate(-34.875 -199.509)" fill="#fff"/>
    <path id="Trazado_35" data-name="Trazado 35" d="M275.54,282.335a18.306,18.306,0,0,1-18.282-18.288V225.42a18.285,18.285,0,1,1,36.571,0V238.5a2.433,2.433,0,1,1-4.866,0V225.42a13.419,13.419,0,1,0-26.839,0v38.628a13.434,13.434,0,0,0,13.416,13.422,13.194,13.194,0,0,0,3.667-.512,2.433,2.433,0,0,1,1.353,4.674,18.034,18.034,0,0,1-5.02.7" transform="translate(-173.804 -139.939)" fill="#fff"/>
    <path id="Trazado_36" data-name="Trazado 36" d="M279.17,320.411H259.691a2.433,2.433,0,0,1,0-4.866H279.17a2.433,2.433,0,0,1,0,4.866" transform="translate(-173.804 -213.183)" fill="#fff"/>
    <path id="Trazado_37" data-name="Trazado 37" d="M279.977,278.842a2.433,2.433,0,0,1-2.433-2.433v-9.344a2.433,2.433,0,1,1,4.866,0v9.344a2.433,2.433,0,0,1-2.433,2.433" transform="translate(-187.51 -178.786)" fill="#fff"/>
    <path id="Trazado_38" data-name="Trazado 38" d="M279.977,351.862a2.433,2.433,0,0,1-2.433-2.433v-9.344a2.433,2.433,0,1,1,4.866,0v9.344a2.433,2.433,0,0,1-2.433,2.433" transform="translate(-187.51 -228.119)" fill="#fff"/>
    <path id="Trazado_39" data-name="Trazado 39" d="M332.115,352.942a20.649,20.649,0,1,1,20.648-20.648,20.672,20.672,0,0,1-20.648,20.648m0-36.432A15.783,15.783,0,1,0,347.9,332.293a15.8,15.8,0,0,0-15.783-15.783" transform="translate(-210.427 -210.548)" fill="#fff"/>
    <path id="Trazado_40" data-name="Trazado 40" d="M343.313,354.511a2.433,2.433,0,0,1-1.721-4.153L363.147,328.8a2.433,2.433,0,0,1,3.441,3.441L345.034,353.8a2.426,2.426,0,0,1-1.721.713" transform="translate(-230.3 -221.659)" fill="#fff"/>
  </g>
</svg>
