<svg xmlns="http://www.w3.org/2000/svg" xmlns:xlink="http://www.w3.org/1999/xlink" width="167" height="167" viewBox="0 0 167 167">
  <defs>
    <clipPath id="clip-path">
      <rect id="Rectángulo_8" data-name="Rectángulo 8" width="167" height="167" transform="translate(-0.385)" fill="none"/>
    </clipPath>
  </defs>
  <g id="Grupo_26" data-name="Grupo 26" transform="translate(0.385)">
    <g id="Grupo_27" data-name="Grupo 27" clip-path="url(#clip-path)">
      <path id="Trazado_13" data-name="Trazado 13" d="M163.385,253.742H2.84A2.84,2.84,0,0,1,.06,250.32L4.228,230.4l18.247-87.277a2.839,2.839,0,0,1,2.78-2.259H47.5a2.84,2.84,0,1,1,0,5.68H27.563L9.788,231.564l-3.452,16.5H159.889L138.662,146.544H118.729a2.84,2.84,0,1,1,0-5.68H140.97a2.84,2.84,0,0,1,2.78,2.259l4.169,19.946,18.246,87.252a2.841,2.841,0,0,1-2.78,3.421" transform="translate(0 -87.521)" fill="#fff"/>
      <path id="Trazado_14" data-name="Trazado 14" d="M13.849,246.788a2.84,2.84,0,0,1-1.73-5.094l57.288-43.915L28.722,166.838a2.84,2.84,0,0,1,3.438-4.521L75.806,195.51a2.84,2.84,0,0,1,.009,4.515L15.575,246.2a2.826,2.826,0,0,1-1.726.586" transform="translate(-6.839 -100.49)" fill="#fff"/>
      <path id="Trazado_15" data-name="Trazado 15" d="M189.739,344.919a2.825,2.825,0,0,1-1.644-.526L117.22,293.964,49.489,344.358A2.84,2.84,0,0,1,46.1,339.8l69.388-51.628a2.841,2.841,0,0,1,3.341-.035l72.559,51.628a2.84,2.84,0,0,1-1.649,5.155" transform="translate(-27.931 -178.698)" fill="#fff"/>
      <path id="Trazado_16" data-name="Trazado 16" d="M289.308,162.352A2.84,2.84,0,0,1,287.8,157.1L313.1,141.3a2.84,2.84,0,1,1,3.011,4.817l-25.3,15.808a2.826,2.826,0,0,1-1.5.432" transform="translate(-177.986 -87.521)" fill="#fff"/>
      <path id="Trazado_17" data-name="Trazado 17" d="M332.758,257.163a2.826,2.826,0,0,1-1.7-.566L283.61,221.073a2.84,2.84,0,0,1,.18-4.671l35.333-22.422a2.84,2.84,0,0,1,3.043,4.8l-31.858,20.217,44.154,33.057a2.84,2.84,0,0,1-1.7,5.114" transform="translate(-175.505 -120.249)" fill="#fff"/>
      <path id="Trazado_18" data-name="Trazado 18" d="M208.827,89.965h-18.7a2.84,2.84,0,1,1,0-5.68h18.7a2.84,2.84,0,0,1,0,5.68" transform="translate(-116.364 -52.368)" fill="#fff"/>
      <path id="Trazado_19" data-name="Trazado 19" d="M214.819,83.974a2.839,2.839,0,0,1-2.84-2.84v-18.7a2.84,2.84,0,1,1,5.68,0v18.7a2.84,2.84,0,0,1-2.84,2.84" transform="translate(-131.706 -37.025)" fill="#fff"/>
      <path id="Trazado_20" data-name="Trazado 20" d="M162.481,98.98a2.841,2.841,0,0,1-2.3-1.168c-1.325-1.818-32.444-44.742-32.444-63.073a34.739,34.739,0,1,1,69.478,0c0,18.331-31.119,61.255-32.444,63.073a2.841,2.841,0,0,1-2.3,1.168m0-93.3a29.092,29.092,0,0,0-29.059,29.059c0,12.612,19.217,42.529,29.059,56.517,9.842-13.989,29.059-43.905,29.059-56.517A29.092,29.092,0,0,0,162.481,5.68" transform="translate(-79.368)" fill="#fff"/>
      <path id="Trazado_21" data-name="Trazado 21" d="M179.743,76.267A24.218,24.218,0,1,1,203.961,52.05a24.245,24.245,0,0,1-24.217,24.217m0-42.755A18.537,18.537,0,1,0,198.28,52.05a18.559,18.559,0,0,0-18.537-18.538" transform="translate(-96.631 -17.293)" fill="#fff"/>
    </g>
  </g>
</svg>
