<svg id="Grupo_54" data-name="Grupo 54" xmlns="http://www.w3.org/2000/svg" xmlns:xlink="http://www.w3.org/1999/xlink" width="137.554" height="137.558" viewBox="0 0 137.554 137.558">
  <defs>
    <clipPath id="clip-path">
      <rect id="Rectángulo_107" data-name="Rectángulo 107" width="137.554" height="137.558" fill="none"/>
    </clipPath>
  </defs>
  <g id="Grupo_54-2" data-name="Grupo 54" clip-path="url(#clip-path)">
    <path id="Trazado_163" data-name="Trazado 163" d="M101.364,137.559H8.357A8.366,8.366,0,0,1,0,129.2V8.357A8.366,8.366,0,0,1,8.357,0H80.064a2.352,2.352,0,0,1,1.662.688L109.033,28a2.351,2.351,0,0,1,.688,1.662V129.2a8.366,8.366,0,0,1-8.357,8.356M8.357,4.7A3.66,3.66,0,0,0,4.7,8.357V129.2a3.66,3.66,0,0,0,3.656,3.656h93.007a3.66,3.66,0,0,0,3.656-3.656V30.631L79.091,4.7Z" transform="translate(0 -0.001)" fill="#fff"/>
    <path id="Trazado_164" data-name="Trazado 164" d="M390.315,310.048H373.893a2.35,2.35,0,0,1-2.35-2.35v-54.13a2.35,2.35,0,0,1,2.35-2.35h16.421a2.35,2.35,0,0,1,2.35,2.35V307.7a2.35,2.35,0,0,1-2.35,2.35m-14.071-4.7h11.721V255.918H376.244Z" transform="translate(-255.111 -172.492)" fill="#fff"/>
    <path id="Trazado_165" data-name="Trazado 165" d="M393.2,83.431H381.613a2.35,2.35,0,0,1-2.35-2.35V13.724a2.353,2.353,0,0,1,.256-1.067l5.792-11.365a2.35,2.35,0,0,1,4.188,0l5.792,11.365a2.353,2.353,0,0,1,.256,1.067V81.081a2.35,2.35,0,0,1-2.35,2.35m-9.233-4.7h6.883V14.288L387.4,7.535l-3.441,6.753Z" transform="translate(-260.412 -0.005)" fill="#fff"/>
    <path id="Trazado_166" data-name="Trazado 166" d="M400.094,336.747a2.35,2.35,0,0,1-2.35-2.35V292.448a2.35,2.35,0,0,1,4.7,0V334.4a2.35,2.35,0,0,1-2.35,2.35" transform="translate(-273.101 -199.189)" fill="#fff"/>
    <path id="Trazado_167" data-name="Trazado 167" d="M400.094,164.006a2.35,2.35,0,0,1-2.35-2.35V119.707a2.35,2.35,0,0,1,4.7,0v41.948a2.35,2.35,0,0,1-2.35,2.35" transform="translate(-273.101 -80.58)" fill="#fff"/>
    <path id="Trazado_168" data-name="Trazado 168" d="M387.4,40.976h-5.791a2.35,2.35,0,1,1,0-4.7H387.4a2.35,2.35,0,1,1,0,4.7" transform="translate(-260.412 -24.907)" fill="#fff"/>
    <path id="Trazado_169" data-name="Trazado 169" d="M277.647,32.007h-21.3a8.366,8.366,0,0,1-8.356-8.357V2.35A2.351,2.351,0,0,1,252,.688L279.309,28a2.35,2.35,0,0,1-1.662,4.012M252.691,8.024V23.65a3.66,3.66,0,0,0,3.656,3.656h15.626Z" transform="translate(-170.276 0)" fill="#fff"/>
    <path id="Trazado_170" data-name="Trazado 170" d="M63.4,75.979H46.034a2.35,2.35,0,1,1,0-4.7H63.4a2.35,2.35,0,0,1,0,4.7" transform="translate(-29.995 -48.941)" fill="#fff"/>
    <path id="Trazado_171" data-name="Trazado 171" d="M73.744,65.637a2.35,2.35,0,0,1-2.35-2.35V45.919a2.35,2.35,0,1,1,4.7,0V63.286a2.35,2.35,0,0,1-2.35,2.35" transform="translate(-49.021 -29.916)" fill="#fff"/>
    <path id="Trazado_172" data-name="Trazado 172" d="M151.121,96.064H136.362a2.35,2.35,0,1,1,0-4.7h14.759a2.35,2.35,0,0,1,0,4.7" transform="translate(-92.016 -62.732)" fill="#fff"/>
    <path id="Trazado_173" data-name="Trazado 173" d="M159.23,55.9H136.362a2.35,2.35,0,1,1,0-4.7H159.23a2.35,2.35,0,0,1,0,4.7" transform="translate(-92.016 -35.152)" fill="#fff"/>
    <path id="Trazado_174" data-name="Trazado 174" d="M112.33,157.1h-66.3a2.35,2.35,0,1,1,0-4.7h66.3a2.35,2.35,0,1,1,0,4.7" transform="translate(-29.994 -104.639)" fill="#fff"/>
    <path id="Trazado_175" data-name="Trazado 175" d="M123.712,211.654H46.034a2.35,2.35,0,0,1,0-4.7h77.677a2.35,2.35,0,1,1,0,4.7" transform="translate(-29.995 -142.099)" fill="#fff"/>
    <path id="Trazado_176" data-name="Trazado 176" d="M123.712,266.211H46.034a2.35,2.35,0,0,1,0-4.7h77.677a2.35,2.35,0,0,1,0,4.7" transform="translate(-29.995 -179.559)" fill="#fff"/>
    <path id="Trazado_177" data-name="Trazado 177" d="M123.712,320.767H46.034a2.35,2.35,0,1,1,0-4.7h77.677a2.35,2.35,0,1,1,0,4.7" transform="translate(-29.995 -217.019)" fill="#fff"/>
    <path id="Trazado_178" data-name="Trazado 178" d="M123.712,375.326H46.034a2.35,2.35,0,0,1,0-4.7h77.677a2.35,2.35,0,0,1,0,4.7" transform="translate(-29.995 -254.481)" fill="#fff"/>
  </g>
</svg>
