<svg xmlns="http://www.w3.org/2000/svg" width="148.852" height="149.375" viewBox="0 0 148.852 149.375">
  <g id="Grupo_5" data-name="Grupo 5" transform="translate(-1354.495 1006.432)">
    <line id="Línea_3" data-name="Línea 3" x2="18.874" transform="translate(1373.769 -935.016)" fill="none" stroke="#fff" stroke-linecap="round" stroke-linejoin="round" stroke-width="5"/>
    <line id="Línea_4" data-name="Línea 4" y2="18.874" transform="translate(1383.206 -944.452)" fill="none" stroke="#fff" stroke-linecap="round" stroke-linejoin="round" stroke-width="5"/>
    <path id="Trazado_1" data-name="Trazado 1" d="M142.863,155.094l5.509-61.622a4.884,4.884,0,0,0-4.865-5.319H107.294a9.84,9.84,0,0,0-5.361,1.588l-18.924,12.29a9.842,9.842,0,0,1-5.36,1.588H9.884a4.884,4.884,0,0,0-4.858,5.387L10.317,160.1a10.482,10.482,0,0,0,10.426,9.4H70.014" transform="translate(1352 -1063.766)" fill="none" stroke="#fff" stroke-linecap="round" stroke-linejoin="round" stroke-width="5"/>
    <path id="Trazado_2" data-name="Trazado 2" d="M155.43,26.893V15.482A10.482,10.482,0,0,0,144.948,5H37.788A10.482,10.482,0,0,0,27.306,15.482V42.357" transform="translate(1337.291 -1008.932)" fill="none" stroke="#fff" stroke-linecap="round" stroke-linejoin="round" stroke-width="5"/>
    <path id="Trazado_3" data-name="Trazado 3" d="M275.011,300.336h0a58.249,58.249,0,0,0-21.949-4.294H249.44a58.251,58.251,0,0,0-21.949,4.294A19.876,19.876,0,0,0,215.1,318.747V341.3H287.4V318.747A19.876,19.876,0,0,0,275.011,300.336Z" transform="translate(1213.449 -1200.856)" fill="none" stroke="#fff" stroke-linecap="round" stroke-linejoin="round" stroke-width="5"/>
    <path id="Trazado_4" data-name="Trazado 4" d="M304.33,185.722a18.063,18.063,0,1,0-18.063,18.063A18.063,18.063,0,0,0,304.33,185.722Z" transform="translate(1178.433 -1116.196)" fill="none" stroke="#fff" stroke-linecap="round" stroke-linejoin="round" stroke-width="5"/>
    <line id="Línea_5" data-name="Línea 5" y1="18.127" transform="translate(1443.393 -877.76)" fill="none" stroke="#fff" stroke-linecap="round" stroke-linejoin="round" stroke-width="5"/>
    <line id="Línea_6" data-name="Línea 6" y1="18.127" transform="translate(1486.007 -877.76)" fill="none" stroke="#fff" stroke-linecap="round" stroke-linejoin="round" stroke-width="5"/>
    <line id="Línea_7" data-name="Línea 7" x2="34.096" transform="translate(1403.832 -943.711)" fill="none" stroke="#fff" stroke-linecap="round" stroke-linejoin="round" stroke-width="5"/>
    <line id="Línea_8" data-name="Línea 8" x2="21.228" transform="translate(1403.832 -927.276)" fill="none" stroke="#fff" stroke-linecap="round" stroke-linejoin="round" stroke-width="5"/>
    <line id="Línea_9" data-name="Línea 9" y1="6.898" transform="translate(1377.448 -973.473)" fill="none" stroke="#fff" stroke-linecap="round" stroke-linejoin="round" stroke-width="5"/>
    <path id="Trazado_5" data-name="Trazado 5" d="M114.969,44.51h82.922a3.022,3.022,0,0,1,3.022,3.022V53.44" transform="translate(1279.482 -1034.986)" fill="none" stroke="#fff" stroke-linecap="round" stroke-linejoin="round" stroke-width="5"/>
    <path id="Trazado_6" data-name="Trazado 6" d="M82.045,44.51V58.491a3.022,3.022,0,0,1-3.022,3.022H65.042Z" transform="translate(1312.406 -1034.986)" fill="none" stroke="#fff" stroke-linecap="round" stroke-linejoin="round" stroke-width="5"/>
  </g>
</svg>
