<svg id="Home" xmlns="http://www.w3.org/2000/svg" width="32.456" height="32.969" viewBox="0 0 32.456 32.969">
  <g id="Home_v2" transform="translate(0 0)">
    <g id="footer-_-desktop" data-name="footer-/-desktop" transform="translate(0 0)">
      <g id="FOOTER" transform="translate(0 0)">
        <g id="Atención-a-clientes">
          <g id="Grupo_3" data-name="Grupo 3" transform="translate(0)">
            <g id="icon_phone" data-name="icon/phone" transform="translate(0 32.969) rotate(-90)">
              <path id="Fill-1" d="M2.75,26.415a10.011,10.011,0,0,1-1.2-3.047,44.362,44.362,0,0,1,8.824-13.152A44.76,44.76,0,0,1,23.722,1.524a11.65,11.65,0,0,1,3.093,1.185,17.361,17.361,0,0,1,2.005,1.3L22.174,9.313c-.171-.113-.4-.226-.63-.4-.973-.507-1.6-.621-2.922.339a57.286,57.286,0,0,0-4.813,4.12l-.172.169a47.445,47.445,0,0,0-4.183,4.8c-.974,1.3-.859,1.92-.344,2.879.172.282.286.452.4.621L4.125,28.39A12.209,12.209,0,0,1,2.75,26.415ZM30.482,5.531l.975,1.129a.836.836,0,0,1,0,.4l-6.016,4.854c-.115.056-.23.113-.286.056l-1.719-1.637,6.589-5.305ZM12.2,24.665a.225.225,0,0,1-.115.226l-4.87,5.869a.574.574,0,0,1-.458.057l-1.089-.9-.516-.4,5.329-6.491.4.452ZM4.7,31.156l1.261,1.016c.057.057.115.057.172.113a2.05,2.05,0,0,0,2.292-.451l4.928-5.983a1.654,1.654,0,0,0-.057-2.314l-1.261-1.129-.974-1.015a8.012,8.012,0,0,1-.63-.9c-.286-.507-.286-.507.229-1.242a54.98,54.98,0,0,1,4.125-4.685A55.353,55.353,0,0,1,19.538,10.5c.745-.508.745-.508,1.261-.226a4.387,4.387,0,0,1,.859.564l2.292,2.2a1.716,1.716,0,0,0,2.35.056l6.13-4.91a2.19,2.19,0,0,0,.4-2.2c-.057-.056-.057-.112-.115-.169L31.628,4.572,30.6,3.5A16.6,16.6,0,0,0,27.56,1.355,11.124,11.124,0,0,0,23.722,0a.738.738,0,0,0-.344.056,46.505,46.505,0,0,0-14.1,9.087A44.871,44.871,0,0,0,.057,22.972.707.707,0,0,0,0,23.311a12.033,12.033,0,0,0,1.375,3.782,14.058,14.058,0,0,0,2.177,2.991L4.7,31.156Z" transform="translate(0)" fill="#fff" fill-rule="evenodd"/>
            </g>
          </g>
        </g>
      </g>
    </g>
  </g>
</svg>
