<svg id="Grupo_187" data-name="Grupo 187" xmlns="http://www.w3.org/2000/svg" xmlns:xlink="http://www.w3.org/1999/xlink" width="104.416" height="104.414" viewBox="0 0 104.416 104.414">
  <defs>
    <clipPath id="clip-path">
      <rect id="Rectángulo_163" data-name="Rectángulo 163" width="104.415" height="104.414" fill="#ddd"/>
    </clipPath>
  </defs>
  <g id="Grupo_186" data-name="Grupo 186" clip-path="url(#clip-path)">
    <path id="Trazado_271" data-name="Trazado 271" d="M109.072,15.144,97.085,3.157a10.811,10.811,0,0,0-15.272,0l-12.9,12.9-.016.015-.015.017L37.537,47.434A4.274,4.274,0,0,0,36.322,49.9L33.09,74.341a4.276,4.276,0,0,0,4.238,4.836,4.207,4.207,0,0,0,.561-.037l24.445-3.232A4.278,4.278,0,0,0,64.8,74.692l44.276-44.276a10.811,10.811,0,0,0,0-15.272m-49.3,52.477L42.3,69.931l2.311-17.477L71.92,25.143,87.086,40.309ZM103.025,24.37l-9.894,9.893L77.966,19.1,87.859,9.2a2.249,2.249,0,0,1,3.18,0L103.025,21.19a2.251,2.251,0,0,1,0,3.18" transform="translate(-7.814 0)" fill="#ddd"/>
    <path id="Trazado_272" data-name="Trazado 272" d="M94.819,65.082a4.276,4.276,0,0,0-4.275,4.275V88.74a8.781,8.781,0,0,1-8.771,8.771H17.322A8.782,8.782,0,0,1,8.55,88.74V24.291a8.782,8.782,0,0,1,8.773-8.771H36.7a4.275,4.275,0,1,0,0-8.551H17.322A17.342,17.342,0,0,0,0,24.291V88.74a17.342,17.342,0,0,0,17.323,17.322h64.45A17.342,17.342,0,0,0,99.1,88.74V69.358a4.276,4.276,0,0,0-4.276-4.275" transform="translate(0 -1.648)" fill="#ddd"/>
  </g>
</svg>
