<svg xmlns="http://www.w3.org/2000/svg" xmlns:xlink="http://www.w3.org/1999/xlink" width="40" height="30" viewBox="0 0 40 30">
  <defs>
    <clipPath id="clip-path">
      <rect id="Rect치ngulo_158" data-name="Rect치ngulo 158" width="40" height="18" transform="translate(0 0)" fill="#84818a"/>
    </clipPath>
  </defs>
  <g id="Grupo_181" data-name="Grupo 181" transform="translate(-1692 -511)">
    <rect id="Rect치ngulo_157" data-name="Rect치ngulo 157" width="40" height="30" transform="translate(1692 511)" fill="#fff"/>
    <g id="Grupo_180" data-name="Grupo 180" transform="translate(1692 516.842)">
      <g id="Grupo_179" data-name="Grupo 179" transform="translate(0 0.158)" clip-path="url(#clip-path)">
        <path id="Trazado_240" data-name="Trazado 240" d="M20.271,0C9.076,0,0,9.214,0,9.214s9.076,9.214,20.271,9.214S40.543,9.214,40.543,9.214,31.467,0,20.271,0m0,16.586c-7.8,0-14.646-4.955-17.52-7.371C5.625,6.8,12.47,1.843,20.271,1.843S34.917,6.8,37.791,9.214c-2.873,2.416-9.717,7.371-17.52,7.371" transform="translate(0 -0.12)" fill="#84818a"/>
        <path id="Trazado_241" data-name="Trazado 241" d="M49.743,12.371a7.371,7.371,0,1,0-7.371,7.371,7.371,7.371,0,0,0,7.371-7.371M42.371,17.9A5.529,5.529,0,1,1,47.9,12.371,5.529,5.529,0,0,1,42.371,17.9" transform="translate(-22.1 -3.277)" fill="#84818a"/>
        <path id="Trazado_242" data-name="Trazado 242" d="M51.843,20a1.843,1.843,0,1,0,1.843,1.843A1.843,1.843,0,0,0,51.843,20" transform="translate(-31.571 -12.749)" fill="#84818a"/>
      </g>
    </g>
  </g>
</svg>
