<svg xmlns="http://www.w3.org/2000/svg" width="89" height="52" viewBox="0 0 89 52">
  <g id="Grupo_58" data-name="Grupo 58" transform="translate(-1009 -273)">
    <path id="BG" d="M0,0H83a6,6,0,0,1,6,6V46a6,6,0,0,1-6,6H0a0,0,0,0,1,0,0V0A0,0,0,0,1,0,0Z" transform="translate(1009 273)" fill="#ef48b6"/>
    <path id="Icon" d="M8.718,29.938A8.518,8.518,0,0,1,3.376,14.631a7.405,7.405,0,0,1,10.5-6.673,13.188,13.188,0,0,1,24.507.74A10.724,10.724,0,0,1,36.2,29.938H30a.754.754,0,1,1,0-1.508H36.2a9.217,9.217,0,0,0,1.491-18.324l-.461-.075-.142-.442a11.666,11.666,0,0,0-22.1-.315l-.312.888-.8-.5a5.887,5.887,0,0,0-8.981,4.979l.038.63-.349.345A7.011,7.011,0,0,0,8.589,28.427h.155c.074,0,.152,0,.226,0H17a.754.754,0,1,1,0,1.508H9.009c-.036,0-.081,0-.133,0Zm14.026-.756V15.9l-6.624,6.586a.763.763,0,0,1-1.072,0,.752.752,0,0,1,0-1.066l7.918-7.874h0l.535-.532.535.532h0l7.917,7.874a.75.75,0,0,1,0,1.066.764.764,0,0,1-1.072,0L24.259,15.9v13.28a.758.758,0,0,1-1.516,0Z" transform="translate(1029.728 284.03)" fill="#fff"/>
  </g>
</svg>
