<svg xmlns="http://www.w3.org/2000/svg" width="104.415" height="104.414" viewBox="0 0 104.415 104.414">
  <g id="Grupo_188" data-name="Grupo 188" transform="translate(-4201.5 -3220.201)">
    <rect id="Rectángulo_163" data-name="Rectángulo 163" width="104.415" height="104.414" transform="translate(4201.5 3220.201)" fill="none"/>
    <g id="Grupo_187" data-name="Grupo 187" transform="translate(-39.545 108.063)">
      <path id="Trazado_266" data-name="Trazado 266" d="M181.88,186.992a5.846,5.846,0,0,1-5.833-5.833v-5.014h-5.014a5.833,5.833,0,1,1,0-11.666h5.014v-5.047a5.833,5.833,0,0,1,11.666,0v5.014h5.014a5.833,5.833,0,0,1,0,11.666h-5.014v5.014a5.853,5.853,0,0,1-5.833,5.866M171,166.708a3.6,3.6,0,0,0,0,7.209h6.161a1.1,1.1,0,0,1,1.114,1.114v6.128a3.6,3.6,0,1,0,7.209,0v-6.128a1.1,1.1,0,0,1,1.114-1.114h6.128a3.6,3.6,0,1,0,0-7.209H186.6a1.1,1.1,0,0,1-1.114-1.114v-6.161a3.6,3.6,0,0,0-7.209,0v6.128a1.1,1.1,0,0,1-1.114,1.114H171Z" transform="translate(4135.936 3011.718)" fill="none" stroke="#ddd" stroke-width="3"/>
      <path id="Trazado_267" data-name="Trazado 267" d="M65.474,195.307H1.114A1.1,1.1,0,0,1,0,194.193V175.809a25.558,25.558,0,0,1,24.807-25.495v-5.8a1.114,1.114,0,0,1,2.228,0v6.914a1.1,1.1,0,0,1-1.114,1.114h-.426A23.293,23.293,0,0,0,2.228,175.809v17.237h62.1v-7.209a1.114,1.114,0,0,1,2.228,0v8.356a1.077,1.077,0,0,1-1.081,1.114m-15.3-40.995a1.009,1.009,0,0,1-.426-.1,22.965,22.965,0,0,0-8.651-1.671h-.426a1.1,1.1,0,0,1-1.114-1.114v-6.914a1.114,1.114,0,0,1,2.228,0v5.8A24.655,24.655,0,0,1,50.6,152.15a1.125,1.125,0,0,1,.623,1.442,1.092,1.092,0,0,1-1.049.721" transform="translate(4247 3018.575)" fill="none" stroke="#ddd" stroke-width="3"/>
      <path id="Trazado_268" data-name="Trazado 268" d="M72.011,177.206a15.746,15.746,0,0,1-14.32-9.241,1.115,1.115,0,0,1,2.032-.918,13.486,13.486,0,0,0,24.577,0,1.115,1.115,0,0,1,2.032.918,15.691,15.691,0,0,1-14.32,9.241" transform="translate(4208.283 3003.12)" fill="none" stroke="#ddd" stroke-width="3"/>
      <path id="Trazado_269" data-name="Trazado 269" d="M60.522,50.76A20.041,20.041,0,0,1,40.5,30.738V20.022a20.022,20.022,0,1,1,40.045,0V30.738A20.041,20.041,0,0,1,60.522,50.76m0-48.5A17.775,17.775,0,0,0,42.761,20.022V30.738a17.761,17.761,0,0,0,35.522,0V20.022A17.775,17.775,0,0,0,60.522,2.261" transform="translate(4219.771 3114.983)" fill="none" stroke="#ddd" stroke-width="3"/>
      <path id="Trazado_270" data-name="Trazado 270" d="M73.079,51.72a20.048,20.048,0,0,1-11.535-3.8c-8.487-5.8-19.17,2.2-19.269,2.294a1.137,1.137,0,0,1-1.573-.2,1.108,1.108,0,0,1,.2-1.573,27.31,27.31,0,0,1,7.144-3.7c5.571-1.9,10.65-1.442,14.746,1.344,8.553,5.866,15.762,2.392,16.057,2.228a1.135,1.135,0,0,1,1.507.492,1.107,1.107,0,0,1-.492,1.507,15.507,15.507,0,0,1-6.783,1.409" transform="translate(4219.799 3085.678)" fill="none" stroke="#ddd" stroke-width="3"/>
      <path id="Trazado_271" data-name="Trazado 271" d="M42.814,256.957a1.1,1.1,0,0,1-1.114-1.114V236.214a1.114,1.114,0,0,1,2.228,0v19.629a1.126,1.126,0,0,1-1.114,1.114" transform="translate(4218.965 2956.925)" fill="none" stroke="#ddd" stroke-width="3"/>
      <path id="Trazado_272" data-name="Trazado 272" d="M155.814,260.924a1.1,1.1,0,0,1-1.114-1.114v-17.7a1.114,1.114,0,1,1,2.228,0v17.7a1.1,1.1,0,0,1-1.114,1.114" transform="translate(4142.995 2952.958)" fill="none" stroke="#ddd" stroke-width="3"/>
      <path id="Trazado_273" data-name="Trazado 273" d="M166.551,179.1A24.151,24.151,0,1,1,190.7,154.951,24.174,24.174,0,0,1,166.551,179.1m0-46.042a21.89,21.89,0,1,0,21.89,21.89,21.908,21.908,0,0,0-21.89-21.89" transform="translate(4151.264 3027.046)" fill="none" stroke="#ddd" stroke-width="3"/>
    </g>
  </g>
</svg>
