<svg xmlns="http://www.w3.org/2000/svg" width="104.415" height="104.701" viewBox="0 0 104.415 104.701">
  <g id="Grupo_187" data-name="Grupo 187" transform="translate(-4092.5 -3119.5)">
    <rect id="Rectángulo_163" data-name="Rectángulo 163" width="104.415" height="104.414" transform="translate(4092.5 3119.5)" fill="none"/>
    <g id="Grupo_186" data-name="Grupo 186" transform="translate(-198.05 30.975)">
      <path id="Trazado_255" data-name="Trazado 255" d="M43.455,86.832H10.275A10.287,10.287,0,0,1,0,76.557V10.274A10.287,10.287,0,0,1,10.275,0H59.245A10.287,10.287,0,0,1,69.52,10.274V40.022H65.906V10.274a6.668,6.668,0,0,0-6.661-6.661H10.275a6.668,6.668,0,0,0-6.661,6.661V76.557a6.668,6.668,0,0,0,6.661,6.661h33.18Z" transform="translate(4293.409 3091.322)" fill="#ddd" stroke="#ddd" stroke-width="4"/>
      <path id="Trazado_256" data-name="Trazado 256" d="M574.257,624.956a30.754,30.754,0,1,1,12.007-2.425,30.653,30.653,0,0,1-12.007,2.425m0-58.075a27.23,27.23,0,1,0,27.23,27.23,27.261,27.261,0,0,0-27.23-27.23" transform="translate(3786.866 2566.271)" fill="#ddd" stroke="#ddd" stroke-width="4"/>
      <path id="Trazado_257" data-name="Trazado 257" d="M447.307,272.883H422.3a1.807,1.807,0,1,1,0-3.614h25.011a1.807,1.807,0,1,1,0,3.614" transform="translate(3901.449 2840.321)" fill="#ddd"/>
      <path id="Trazado_258" data-name="Trazado 258" d="M177.805,227.487l-2.8-2.8a1.807,1.807,0,0,1,0-2.556h0a1.807,1.807,0,0,1,2.556,0l1.566,1.566,4.818-4.818a1.807,1.807,0,0,1,2.556,0h0a1.807,1.807,0,0,1,0,2.556l-6.054,6.054a1.866,1.866,0,0,1-2.639,0" transform="translate(4130.772 2887.787)" fill="#ddd" stroke="#ddd" stroke-width="3.4"/>
      <path id="Trazado_259" data-name="Trazado 259" d="M447.307,512.505H422.3a1.807,1.807,0,0,1-1.807-1.807h0a1.807,1.807,0,0,1,1.807-1.807h25.011a1.807,1.807,0,0,1,1.807,1.807h0a1.807,1.807,0,0,1-1.807,1.807" transform="translate(3901.449 2616.957)" fill="#ddd"/>
      <path id="Trazado_260" data-name="Trazado 260" d="M177.805,467.109l-2.8-2.8a1.807,1.807,0,0,1,0-2.556h0a1.807,1.807,0,0,1,2.556,0l1.566,1.566,4.818-4.818a1.807,1.807,0,0,1,2.556,0h0a1.807,1.807,0,0,1,0,2.556l-6.054,6.054a1.866,1.866,0,0,1-2.639,0" transform="translate(4130.772 2664.422)" fill="#ddd" stroke="#ddd" stroke-width="3.4"/>
      <path id="Trazado_261" data-name="Trazado 261" d="M429.935,752.127h-8.328c-.618,0-1.118-.809-1.118-1.807s.5-1.807,1.118-1.807h8.328Z" transform="translate(3901.449 2393.592)" fill="#ddd"/>
      <path id="Trazado_262" data-name="Trazado 262" d="M177.805,706.732l-2.8-2.8a1.807,1.807,0,0,1,0-2.556h0a1.807,1.807,0,0,1,2.556,0l1.566,1.566,4.818-4.818a1.807,1.807,0,0,1,2.556,0h0a1.807,1.807,0,0,1,0,2.556l-6.054,6.054a1.866,1.866,0,0,1-2.639,0" transform="translate(4130.772 2441.056)" fill="#ddd" stroke="#ddd" stroke-width="3.4"/>
      <path id="Trazado_263" data-name="Trazado 263" d="M744.457,869.089l-11.21-11.21a1.807,1.807,0,0,1,2.556-2.556l9.974,9.974,19.858-19.858a1.807,1.807,0,0,1,2.556,2.556L747.1,869.089a1.866,1.866,0,0,1-2.639,0" transform="translate(3610.404 2303.736)" fill="#ddd" stroke="#ddd" stroke-width="4"/>
      <path id="Trazado_264" data-name="Trazado 264" d="M425.929,991.75h-4.471c-.535,0-.969-.809-.969-1.807h0c0-1,.434-1.807.969-1.807h4.471Z" transform="translate(3901.449 2170.227)" fill="#ddd"/>
      <path id="Trazado_265" data-name="Trazado 265" d="M177.805,946.356l-2.8-2.8A1.807,1.807,0,0,1,177.559,941l1.566,1.566,4.818-4.818A1.807,1.807,0,1,1,186.5,940.3l-6.054,6.054a1.866,1.866,0,0,1-2.639,0" transform="translate(4130.772 2217.691)" fill="#ddd" stroke="#ddd" stroke-width="3.4"/>
    </g>
  </g>
</svg>
